<svg width="130" height="167" viewBox="0 0 130 167" fill="none" xmlns="http://www.w3.org/2000/svg">
    <path d="M4.43628 157.908L2.84846 163.826H4.8487L5.79726 160.3L6.68397 163.826H8.74607L7.15825 157.867L8.56048 152.732H6.60148L5.85913 156.031L5.03429 152.732H2.91032L4.43628 157.908ZM10.4417 152.072V163.826H12.7925V148.484H10.9159C10.6891 149.701 10.2561 150.092 8.87446 150.175V152.072H10.4417ZM15.8162 161.187H13.651V163.826H15.8162V161.187ZM19.5452 161.805C19.0915 161.805 18.8647 161.475 18.8647 160.836V157.062C18.8647 156.464 19.0915 156.155 19.5452 156.155C19.9988 156.155 20.2257 156.464 20.2257 157.104V160.836C20.2257 161.475 19.9988 161.805 19.5452 161.805ZM20.8443 154.031C19.8957 154.031 19.2359 154.815 18.8441 155.413V151.268C18.8441 150.917 18.9266 150.525 19.4008 150.525C19.8751 150.525 19.9576 150.917 19.9576 151.268V153.021H22.329V150.752C22.329 149.35 21.5248 148.34 19.607 148.34H19.1946C17.215 148.34 16.4727 149.474 16.4727 151.35V161.042C16.4727 162.63 17.2769 164.012 19.339 164.012H19.772C21.8341 164.012 22.6177 162.589 22.6177 160.939V155.846C22.6177 155.083 22.2053 154.031 20.9268 154.031H20.8443ZM25.0109 158.32C25.9594 158.32 26.6606 157.454 26.9905 156.959V161.063C26.9905 161.455 26.908 161.846 26.475 161.846C25.9801 161.846 25.8976 161.455 25.8976 161.063V159.331H23.4849V161.351C23.4849 162.919 24.1654 164.012 26.1657 164.012H26.6812C28.5164 164.012 29.3619 162.898 29.3619 161.331V151.227C29.3619 149.598 28.6814 148.34 26.5368 148.34H26.0625C23.9386 148.34 23.2168 149.639 23.2168 151.227V156.176C23.2168 157.165 23.8355 158.32 24.949 158.32H25.0109ZM26.2894 150.546C26.8874 150.546 26.9905 151 26.9905 151.495V155.268C26.9905 155.846 26.8049 156.196 26.2894 156.196C25.8357 156.196 25.6089 155.866 25.6089 155.227V151.495C25.6089 151.062 25.6914 150.546 26.2894 150.546Z" fill="white"/>
    <path d="M52.1913 157.908L50.6035 163.826H52.6037L53.5523 160.3L54.439 163.826H56.5011L54.9133 157.867L56.3155 152.732H54.3565L53.6141 156.031L52.7893 152.732H50.6653L52.1913 157.908ZM58.1967 152.072V163.826H60.5475V148.484H58.6709C58.4441 149.701 58.0111 150.092 56.6295 150.175V152.072H58.1967ZM63.5712 161.187H61.406V163.826H63.5712V161.187ZM67.3002 161.805C66.8465 161.805 66.6197 161.475 66.6197 160.836V157.062C66.6197 156.464 66.8465 156.155 67.3002 156.155C67.7538 156.155 67.9807 156.464 67.9807 157.104V160.836C67.9807 161.475 67.7538 161.805 67.3002 161.805ZM68.5993 154.031C67.6507 154.031 66.9909 154.815 66.5991 155.413V151.268C66.5991 150.917 66.6816 150.525 67.1558 150.525C67.6301 150.525 67.7126 150.917 67.7126 151.268V153.021H70.084V150.752C70.084 149.35 69.2798 148.34 67.3621 148.34H66.9496C64.97 148.34 64.2277 149.474 64.2277 151.35V161.042C64.2277 162.63 65.0319 164.012 67.094 164.012H67.527C69.5891 164.012 70.3727 162.589 70.3727 160.939V155.846C70.3727 155.083 69.9603 154.031 68.6818 154.031H68.5993ZM72.7659 158.32C73.7144 158.32 74.4156 157.454 74.7455 156.959V161.063C74.7455 161.455 74.663 161.846 74.23 161.846C73.7351 161.846 73.6526 161.455 73.6526 161.063V159.331H71.2399V161.351C71.2399 162.919 71.9204 164.012 73.9207 164.012H74.4362C76.2714 164.012 77.1169 162.898 77.1169 161.331V151.227C77.1169 149.598 76.4364 148.34 74.2918 148.34H73.8176C71.6936 148.34 70.9719 149.639 70.9719 151.227V156.176C70.9719 157.165 71.5905 158.32 72.704 158.32H72.7659ZM74.0444 150.546C74.6424 150.546 74.7455 151 74.7455 151.495V155.268C74.7455 155.846 74.5599 156.196 74.0444 156.196C73.5907 156.196 73.3639 155.866 73.3639 155.227V151.495C73.3639 151.062 73.4464 150.546 74.0444 150.546Z" fill="#F8FF13"/>
    <path d="M99.9464 157.908L98.3586 163.826H100.359L101.307 160.3L102.194 163.826H104.256L102.668 157.867L104.071 152.732H102.112L101.369 156.031L100.544 152.732H98.4205L99.9464 157.908ZM105.952 152.072V163.826H108.303V148.484H106.426C106.199 149.701 105.766 150.092 104.385 150.175V152.072H105.952ZM111.326 161.187H109.161V163.826H111.326V161.187ZM115.055 161.805C114.602 161.805 114.375 161.475 114.375 160.836V157.062C114.375 156.464 114.602 156.155 115.055 156.155C115.509 156.155 115.736 156.464 115.736 157.104V160.836C115.736 161.475 115.509 161.805 115.055 161.805ZM116.354 154.031C115.406 154.031 114.746 154.815 114.354 155.413V151.268C114.354 150.917 114.437 150.525 114.911 150.525C115.385 150.525 115.468 150.917 115.468 151.268V153.021H117.839V150.752C117.839 149.35 117.035 148.34 115.117 148.34H114.705C112.725 148.34 111.983 149.474 111.983 151.35V161.042C111.983 162.63 112.787 164.012 114.849 164.012H115.282C117.344 164.012 118.128 162.589 118.128 160.939V155.846C118.128 155.083 117.715 154.031 116.437 154.031H116.354ZM120.521 158.32C121.47 158.32 122.171 157.454 122.501 156.959V161.063C122.501 161.455 122.418 161.846 121.985 161.846C121.49 161.846 121.408 161.455 121.408 161.063V159.331H118.995V161.351C118.995 162.919 119.676 164.012 121.676 164.012H122.191C124.027 164.012 124.872 162.898 124.872 161.331V151.227C124.872 149.598 124.192 148.34 122.047 148.34H121.573C119.449 148.34 118.727 149.639 118.727 151.227V156.176C118.727 157.165 119.346 158.32 120.459 158.32H120.521ZM121.8 150.546C122.398 150.546 122.501 151 122.501 151.495V155.268C122.501 155.846 122.315 156.196 121.8 156.196C121.346 156.196 121.119 155.866 121.119 155.227V151.495C121.119 151.062 121.201 150.546 121.8 150.546Z" fill="white"/>
    <path d="M12.1772 80.1978H18.8655V36.162H12.1772V55.5164C11.7629 55.7532 11.0526 55.8715 10.0465 55.8715H9.92808C8.33001 55.8715 7.61975 55.3388 7.61975 52.6754V36.162H0.93152V55.5756C0.93152 59.6596 3.0031 62.6189 8.03407 62.6189H8.09326C9.3362 62.6189 10.7567 62.5006 12.1772 62.0271V80.1978ZM21.4619 36.162V80.1978H37.0283V73.5095H28.1501V60.7841H34.8383V54.0959H28.1501V42.5543H36.6731V36.162H21.4619ZM43.1242 56.641L37.3238 80.1978H44.0712L47.4449 64.2762L50.7594 80.1978H57.6844L52.0023 56.641L57.0333 36.162H50.5227L47.8 50.0711L44.959 36.162H38.1524L43.1242 56.641ZM70.1074 80.1978H76.7956V36.162H70.1074L65.3132 60.0147V36.162H58.6249V80.1978H65.3132L70.1074 56.345V80.1978ZM89.9136 61.7311V80.1978H96.6018V36.162H85.7704C81.2721 36.162 79.023 37.9968 79.023 42.9686V55.2205C79.023 58.0023 80.266 59.7779 82.6927 60.5474L77.3657 80.1978H84.2315L89.1441 61.7311H89.9136ZM89.9136 55.3388H88.1379C86.3031 55.3388 85.7112 54.1551 85.7112 52.2019V44.981C85.7112 43.0869 86.0664 42.1399 88.1379 42.1399H89.9136V55.3388Z" fill="white"/>
    <path d="M1.24295 136.201H28.8837V92.1651H22.1955V129.513H18.4074V92.1651H11.7192V129.513H7.93118V92.1651H1.24295V136.201ZM31.4755 136.201H42.4844C47.5154 136.201 49.587 132.827 49.587 128.151V118.622C49.587 114.183 47.4562 112.822 45.7398 112.171C47.4562 111.52 49.0543 109.803 49.0543 106.074V99.3268C49.0543 95.0653 47.5154 92.1651 42.0109 92.1651H31.4755V136.201ZM40.1761 116.136C42.3069 116.136 42.7804 117.142 42.7804 118.977V127.027C42.7804 128.98 42.3069 129.986 40.1761 129.986H38.1637V116.136H40.1761ZM40.1761 98.1431C42.0109 98.1431 42.4844 99.0901 42.4844 100.925V106.489C42.4844 108.323 42.0109 109.566 40.1761 109.566H38.1637V98.1431H40.1761ZM51.6479 92.1651V136.201H67.2143V129.513H58.3361V116.787H65.0244V110.099H58.3361V98.5574H66.8592V92.1651H51.6479ZM83.1354 142.416H89.2318V129.513H86.2724V92.1651H79.5841V129.513H75.5002V92.1651H68.8119V136.201H83.1354V142.416ZM102.259 136.201H108.947V92.1651H102.259L97.4644 116.018V92.1651H90.7762V136.201H97.4644L102.259 112.348V136.201ZM122.065 117.734V136.201H128.753V92.1651H117.922C113.423 92.1651 111.174 93.9999 111.174 98.9717V111.224C111.174 114.005 112.417 115.781 114.844 116.55L109.517 136.201H116.383L121.295 117.734H122.065ZM122.065 111.342H120.289C118.454 111.342 117.863 110.158 117.863 108.205V100.984C117.863 99.0901 118.218 98.1431 120.289 98.1431H122.065V111.342Z" fill="white"/>
    <rect x="103.321" y="55.1626" width="26.2274" height="26.2274" fill="#F8FF13"/>
    <path d="M109.274 83.1617H113.357L116.158 60.9892H112.969L111.42 76.2477L109.9 60.9892H106.473L109.274 83.1617ZM120.931 60.7806C118.279 60.7806 116.788 62.1217 116.788 65.1018V65.8171C116.788 68.0224 117.206 69.4529 118.636 71.3006L120.782 74.0424C122.004 75.6516 122.153 76.1583 122.153 77.7676V78.2742C122.153 79.6749 121.855 80.1815 121.05 80.1815C120.305 80.1815 119.947 79.6749 119.947 78.6318V74.7576H116.61V79.1981C116.61 81.9398 118.01 83.4001 120.722 83.4001H121.378C124.358 83.4001 125.729 81.463 125.729 78.2146V77.4994C125.729 74.9662 125.252 73.8635 123.732 71.8966L121.587 69.1251C120.454 67.6648 120.216 66.9793 120.216 65.7277V65.3104C120.216 64.2674 120.394 63.7608 121.199 63.7608C122.004 63.7608 122.153 64.327 122.153 65.072V68.2608H125.401V64.625C125.401 62.0025 124.328 60.7806 121.557 60.7806H120.931Z" fill="black"/>
    <path d="M55.791 9.5018V24H58.6907V5.07604H56.376C56.0962 6.57673 55.5621 7.06 53.8579 7.16174V9.5018H55.791ZM62.8273 15.53V14.3854C62.8273 13.8513 62.8782 13.2662 63.5141 13.2662C64.1499 13.2662 64.1754 13.8513 64.1754 14.3854V20.4136C64.1754 21.0241 63.9973 21.5073 63.4632 21.5073C62.8527 21.5073 62.7001 21.0495 62.7001 20.4136V17.0816H59.7496V20.9732C59.7496 22.3213 60.3346 24.2289 63.2597 24.2289H63.7938C66.2865 24.2289 67.2531 22.4484 67.2531 20.668V12.5541C67.2531 11.4349 66.7444 10.3157 65.2437 10.3157H65.1419C64.0991 10.3157 63.3106 11.1805 62.8273 12.1725V7.92481H67.075V5.07604H60.004V15.53H62.8273ZM70.7912 20.7443H68.1205V24H70.7912V20.7443ZM79.2061 9.19658C79.2061 6.65304 78.4176 4.89799 75.7215 4.89799H75.1873C72.5675 4.89799 71.6009 6.50042 71.6009 9.24745V20.2864C71.6009 22.9063 72.7964 24.2289 75.0347 24.2289H75.6706C77.9852 24.2289 79.2061 22.5502 79.2061 20.2864V9.19658ZM76.2811 20.0829C76.2811 20.8206 76.103 21.3547 75.3654 21.3547C74.6277 21.3547 74.526 20.7697 74.526 20.0829V9.09484C74.526 8.15373 74.7041 7.69589 75.3908 7.69589C76.0776 7.69589 76.2811 8.10286 76.2811 9.09484V20.0829ZM83.2204 15.53V14.3854C83.2204 13.8513 83.2712 13.2662 83.9071 13.2662C84.543 13.2662 84.5684 13.8513 84.5684 14.3854V20.4136C84.5684 21.0241 84.3904 21.5073 83.8562 21.5073C83.2458 21.5073 83.0932 21.0495 83.0932 20.4136V17.0816H80.1427V20.9732C80.1427 22.3213 80.7277 24.2289 83.6528 24.2289H84.1869C86.6796 24.2289 87.6461 22.4484 87.6461 20.668V12.5541C87.6461 11.4349 87.1374 10.3157 85.6367 10.3157H85.535C84.4921 10.3157 83.7036 11.1805 83.2204 12.1725V7.92481H87.4681V5.07604H80.397V15.53H83.2204Z" fill="white"/>
</svg>