<svg width="132" height="40" viewBox="0 0 132 40" fill="none" xmlns="http://www.w3.org/2000/svg">
<path d="M0.75061 4.36524C0.75061 1.95439 2.71233 0 5.13223 0H126.941C129.361 0 131.323 1.95439 131.323 4.36524V34.922C131.323 37.3328 129.361 39.2872 126.941 39.2872H5.13223C2.71233 39.2872 0.75061 37.3328 0.75061 34.922V4.36524Z" fill="black"/>
<path fill-rule="evenodd" clip-rule="evenodd" d="M126.941 0.873049H5.13223C3.19631 0.873049 1.62693 2.43656 1.62693 4.36524V34.922C1.62693 36.8506 3.19631 38.4142 5.13223 38.4142H126.941C128.877 38.4142 130.446 36.8506 130.446 34.922V4.36524C130.446 2.43656 128.877 0.873049 126.941 0.873049ZM5.13223 0C2.71233 0 0.75061 1.95439 0.75061 4.36524V34.922C0.75061 37.3328 2.71233 39.2872 5.13223 39.2872H126.941C129.361 39.2872 131.323 37.3328 131.323 34.922V4.36524C131.323 1.95439 129.361 0 126.941 0H5.13223Z" fill="white"/>
<path d="M42.3492 14.9467L44.3024 10.3992H45.0275L47.1091 14.9467H46.3424L45.7491 13.5694H43.6224L43.0638 14.9467H42.3492ZM43.8167 13.0793H45.541L45.0101 11.8199C44.8482 11.4373 44.728 11.123 44.6493 10.8769C44.5846 11.1685 44.4932 11.458 44.3753 11.7455L43.8167 13.0793Z" fill="white"/>
<path d="M48.4587 14.9467L47.0571 11.6524H47.7162L48.5073 13.6253C48.5928 13.8383 48.6715 14.0596 48.7432 14.2891C48.7987 14.1154 48.8762 13.9065 48.9756 13.6625L49.7944 11.6524H50.4362L49.0415 14.9467H48.4587Z" fill="white"/>
<path d="M53.3921 14.5404C53.1608 14.7162 52.9376 14.8402 52.7225 14.9126C52.5097 14.985 52.2808 15.0212 52.0356 15.0212C51.6308 15.0212 51.3198 14.9333 51.1023 14.7575C50.8849 14.5797 50.7762 14.3532 50.7762 14.0782C50.7762 13.9169 50.8167 13.77 50.8976 13.6377C50.9809 13.5033 51.0885 13.3957 51.2203 13.3151C51.3544 13.2344 51.5048 13.1734 51.6713 13.1321C51.7939 13.1031 51.9789 13.0752 52.2264 13.0483C52.7306 12.9945 53.1018 12.9304 53.3401 12.856C53.3424 12.7795 53.3435 12.7309 53.3435 12.7102C53.3435 12.4827 53.2846 12.3224 53.1666 12.2294C53.007 12.1032 52.7699 12.0401 52.4554 12.0401C52.1616 12.0401 51.9442 12.0867 51.8031 12.1797C51.6644 12.2707 51.5615 12.4331 51.4944 12.6668L50.8838 12.5923C50.9393 12.3586 51.0306 12.1704 51.1578 12.0277C51.2851 11.883 51.4689 11.7723 51.7095 11.6958C51.95 11.6172 52.2287 11.5779 52.5456 11.5779C52.8601 11.5779 53.1157 11.611 53.3123 11.6772C53.5089 11.7434 53.6535 11.8271 53.746 11.9285C53.8385 12.0277 53.9033 12.1539 53.9403 12.3069C53.9611 12.402 53.9715 12.5737 53.9715 12.8219V13.5663C53.9715 14.0854 53.9842 14.4142 54.0097 14.5528C54.0374 14.6893 54.0906 14.8206 54.1692 14.9467H53.517C53.4522 14.8309 53.4106 14.6955 53.3921 14.5404ZM53.3401 13.2934C53.1134 13.3761 52.7734 13.4464 52.3201 13.5043C52.0633 13.5374 51.8818 13.5746 51.7754 13.616C51.669 13.6573 51.5869 13.7183 51.5291 13.799C51.4712 13.8776 51.4423 13.9655 51.4423 14.0627C51.4423 14.2116 51.5048 14.3356 51.6297 14.4349C51.7569 14.5342 51.9419 14.5838 52.1848 14.5838C52.4253 14.5838 52.6393 14.5373 52.8266 14.4442C53.014 14.3491 53.1516 14.2198 53.2395 14.0565C53.3065 13.9303 53.3401 13.7442 53.3401 13.4981V13.2934Z" fill="white"/>
<path d="M54.9464 11.0413V10.3992H55.5709V11.0413H54.9464ZM54.9464 14.9467V11.6524H55.5709V14.9467H54.9464Z" fill="white"/>
<path d="M56.5111 14.9467V10.3992H57.1355V14.9467H56.5111Z" fill="white"/>
<path d="M60.5112 14.5404C60.2799 14.7162 60.0567 14.8402 59.8416 14.9126C59.6289 14.985 59.3999 15.0212 59.1547 15.0212C58.75 15.0212 58.4389 14.9333 58.2215 14.7575C58.004 14.5797 57.8953 14.3532 57.8953 14.0782C57.8953 13.9169 57.9358 13.77 58.0168 13.6377C58.1 13.5033 58.2076 13.3957 58.3394 13.3151C58.4736 13.2344 58.6239 13.1734 58.7904 13.1321C58.913 13.1031 59.098 13.0752 59.3455 13.0483C59.8497 12.9945 60.221 12.9304 60.4592 12.856C60.4615 12.7795 60.4627 12.7309 60.4627 12.7102C60.4627 12.4827 60.4037 12.3224 60.2857 12.2294C60.1261 12.1032 59.8891 12.0401 59.5745 12.0401C59.2808 12.0401 59.0634 12.0867 58.9223 12.1797C58.7835 12.2707 58.6806 12.4331 58.6135 12.6668L58.0029 12.5923C58.0584 12.3586 58.1498 12.1704 58.277 12.0277C58.4042 11.883 58.5881 11.7723 58.8286 11.6958C59.0691 11.6172 59.3478 11.5779 59.6647 11.5779C59.9793 11.5779 60.2348 11.611 60.4314 11.6772C60.628 11.7434 60.7726 11.8271 60.8651 11.9285C60.9576 12.0277 61.0224 12.1539 61.0594 12.3069C61.0802 12.402 61.0906 12.5737 61.0906 12.8219V13.5663C61.0906 14.0854 61.1033 14.4142 61.1288 14.5528C61.1565 14.6893 61.2097 14.8206 61.2884 14.9467H60.6361C60.5714 14.8309 60.5297 14.6955 60.5112 14.5404ZM60.4592 13.2934C60.2325 13.3761 59.8925 13.4464 59.4392 13.5043C59.1825 13.5374 59.0009 13.5746 58.8945 13.616C58.7881 13.6573 58.706 13.7183 58.6482 13.799C58.5904 13.8776 58.5615 13.9655 58.5615 14.0627C58.5615 14.2116 58.6239 14.3356 58.7488 14.4349C58.876 14.5342 59.061 14.5838 59.3039 14.5838C59.5444 14.5838 59.7584 14.5373 59.9457 14.4442C60.1331 14.3491 60.2707 14.2198 60.3586 14.0565C60.4257 13.9303 60.4592 13.7442 60.4592 13.4981V13.2934Z" fill="white"/>
<path d="M62.6379 14.9467H62.0586V10.3992H62.6831V12.0215C62.9467 11.7258 63.2832 11.5779 63.6926 11.5779C63.9193 11.5779 64.1332 11.6193 64.3345 11.702C64.538 11.7827 64.7045 11.8975 64.8341 12.0463C64.9659 12.1932 65.0688 12.371 65.1428 12.5799C65.2168 12.7888 65.2538 13.0121 65.2538 13.2499C65.2538 13.8145 65.0977 14.2509 64.7855 14.559C64.4732 14.8671 64.0985 15.0212 63.6614 15.0212C63.2266 15.0212 62.8854 14.8589 62.6379 14.5342V14.9467ZM62.631 13.2748C62.631 13.6697 62.6911 13.9551 62.8114 14.1309C63.008 14.4184 63.274 14.5621 63.6094 14.5621C63.8823 14.5621 64.1182 14.4566 64.3171 14.2457C64.516 14.0327 64.6155 13.7163 64.6155 13.2965C64.6155 12.8663 64.5195 12.5489 64.3275 12.3441C64.1379 12.1394 63.9077 12.037 63.6371 12.037C63.3642 12.037 63.1283 12.1435 62.9294 12.3566C62.7305 12.5675 62.631 12.8736 62.631 13.2748Z" fill="white"/>
<path d="M66.0032 14.9467V10.3992H66.6277V14.9467H66.0032Z" fill="white"/>
<path d="M70.1214 13.8859L70.7667 13.9572C70.6649 14.2943 70.4764 14.5559 70.2011 14.742C69.9259 14.9281 69.5743 15.0212 69.1465 15.0212C68.6076 15.0212 68.1797 14.8733 67.8628 14.5776C67.5482 14.2798 67.391 13.8631 67.391 13.3275C67.391 12.7733 67.5506 12.3431 67.8697 12.037C68.1889 11.731 68.6029 11.5779 69.1118 11.5779C69.6044 11.5779 70.0069 11.7279 70.3191 12.0277C70.6313 12.3276 70.7875 12.7495 70.7875 13.2934C70.7875 13.3265 70.7863 13.3761 70.784 13.4423H68.0363C68.0594 13.8042 68.1739 14.0813 68.3797 14.2736C68.5856 14.4659 68.8423 14.5621 69.1499 14.5621C69.3789 14.5621 69.5743 14.5083 69.7363 14.4008C69.8982 14.2933 70.0265 14.1216 70.1214 13.8859ZM68.071 12.9832H70.1283C70.1005 12.706 70.0219 12.4982 69.8924 12.3597C69.6935 12.1446 69.4356 12.037 69.1187 12.037C68.8319 12.037 68.5902 12.1229 68.3936 12.2945C68.1993 12.4662 68.0918 12.6957 68.071 12.9832Z" fill="white"/>
<path d="M73.2993 13.2996C73.2993 12.6895 73.4889 12.2376 73.8683 11.944C74.1851 11.7 74.5714 11.5779 75.027 11.5779C75.5335 11.5779 75.9476 11.7268 76.2691 12.0246C76.5905 12.3204 76.7513 12.7298 76.7513 13.253C76.7513 13.677 76.6796 14.011 76.5362 14.255C76.3951 14.497 76.1881 14.6851 75.9152 14.8196C75.6446 14.954 75.3485 15.0212 75.027 15.0212C74.5112 15.0212 74.0938 14.8733 73.7746 14.5776C73.4577 14.2819 73.2993 13.8559 73.2993 13.2996ZM73.9411 13.2996C73.9411 13.7214 74.044 14.0379 74.2499 14.2488C74.4557 14.4577 74.7148 14.5621 75.027 14.5621C75.337 14.5621 75.5948 14.4566 75.8007 14.2457C76.0065 14.0347 76.1095 13.7132 76.1095 13.281C76.1095 12.8736 76.0054 12.5654 75.7972 12.3566C75.5914 12.1456 75.3346 12.0401 75.027 12.0401C74.7148 12.0401 74.4557 12.1446 74.2499 12.3534C74.044 12.5623 73.9411 12.8777 73.9411 13.2996Z" fill="white"/>
<path d="M77.4868 14.9467V11.6524H78.0488V12.1208C78.3194 11.7589 78.7103 11.5779 79.2215 11.5779C79.4435 11.5779 79.647 11.6141 79.8321 11.6865C80.0194 11.7568 80.1594 11.8499 80.2519 11.9657C80.3444 12.0815 80.4091 12.219 80.4462 12.3783C80.4693 12.4817 80.4809 12.6626 80.4809 12.9211V14.9467H79.8564V12.9428C79.8564 12.7154 79.8321 12.5458 79.7835 12.4341C79.7349 12.3204 79.6482 12.2304 79.5233 12.1642C79.4007 12.096 79.2562 12.0619 79.0896 12.0619C78.8237 12.0619 78.5935 12.1373 78.3992 12.2883C78.2073 12.4393 78.1113 12.7257 78.1113 13.1476V14.9467H77.4868Z" fill="white"/>
<path d="M52.2848 23.0395H47.4007V24.2912H50.987C50.7358 25.8559 49.5357 27.048 47.5123 27.048C45.1819 27.048 43.633 25.2598 43.633 22.9948C43.633 20.7149 45.1959 18.9267 47.4565 18.9267C48.838 18.9267 50.0241 19.6867 50.5823 20.8043L51.6987 20.1039C50.8893 18.6138 49.2985 17.5856 47.4705 17.5856C44.4981 17.5856 42.3492 19.9996 42.3492 22.9948C42.3492 25.9751 44.4842 28.404 47.4984 28.404C50.4428 28.404 52.2848 26.3178 52.2848 23.6654V23.0395Z" fill="white"/>
<path d="M59.5144 20.7596V22.0411C58.9562 21.1321 58.0631 20.5659 56.877 20.5659C54.9373 20.5659 53.3465 22.2795 53.3465 24.485C53.3465 26.6904 54.9373 28.404 56.877 28.404C58.0631 28.404 58.9562 27.8378 59.5144 26.9288V28.2103H60.7285V20.7596H59.5144ZM57.0305 27.1523C55.6351 27.1523 54.5606 26.0049 54.5606 24.485C54.5606 22.965 55.6351 21.8176 57.0305 21.8176C58.4399 21.8176 59.5144 22.965 59.5144 24.485C59.5144 26.0049 58.4399 27.1523 57.0305 27.1523Z" fill="white"/>
<path d="M62.5678 28.2103H63.7819V17.3323H62.5678V28.2103Z" fill="white"/>
<path d="M71.4112 20.7596V22.0411C70.853 21.1321 69.9599 20.5659 68.7738 20.5659C66.8341 20.5659 65.2433 22.2795 65.2433 24.485C65.2433 26.6904 66.8341 28.404 68.7738 28.404C69.9599 28.404 70.853 27.8378 71.4112 26.9288V28.2103H72.6252V20.7596H71.4112ZM68.9273 27.1523C67.5318 27.1523 66.4573 26.0049 66.4573 24.485C66.4573 22.965 67.5318 21.8176 68.9273 21.8176C70.3367 21.8176 71.4112 22.965 71.4112 24.485C71.4112 26.0049 70.3367 27.1523 68.9273 27.1523Z" fill="white"/>
<path d="M80.5209 28.2103L77.8556 24.3657L80.3674 20.7596H78.944L77.1439 23.3524L75.3437 20.7596H73.9064L76.4322 24.3806L73.7529 28.2103H75.1763L77.1439 25.3939L79.0975 28.2103H80.5209Z" fill="white"/>
<path d="M86.5164 20.7596L84.507 26.601L82.1347 20.7596H80.8369L83.879 28.1805L83.7534 28.4636C83.3906 29.4471 82.8045 30.0581 81.8696 29.9836V31.1906C83.2929 31.2949 84.3814 30.3412 84.9675 28.6723L87.8142 20.7596H86.5164Z" fill="white"/>
<path d="M95.5959 28.404C97.5914 28.404 98.9729 27.2417 98.9729 25.4088C98.9729 23.3972 97.3681 22.8607 95.6657 22.2646C94.2981 21.8027 93.6144 21.4451 93.6144 20.4765C93.6144 19.5228 94.34 18.9267 95.3866 18.9267C96.5727 18.9267 97.2565 19.642 97.6054 20.5361L98.6938 19.8655C98.1496 18.5542 96.9914 17.5856 95.3866 17.5856C93.7539 17.5856 92.3166 18.6585 92.3166 20.5361C92.3166 22.4733 93.8237 22.9948 95.3866 23.5313C96.8239 24.0081 97.6891 24.3657 97.6891 25.4386C97.6891 26.3774 97.0053 27.048 95.6238 27.048C94.2005 27.048 93.3632 26.3029 93.0143 25.1555L91.898 25.841C92.4143 27.4056 93.74 28.404 95.5959 28.404Z" fill="white"/>
<path d="M103.975 22.0113V20.7596H102.119V18.6734L100.905 19.0608V20.7596H99.5238V22.0113H100.905V26.0496C100.905 27.9123 101.882 28.5083 103.975 28.2103V27.048C102.733 27.1076 102.119 27.1821 102.119 26.0496V22.0113H103.975Z" fill="white"/>
<path d="M108.338 28.404C110.375 28.404 112.022 26.6904 112.022 24.485C112.022 22.2795 110.375 20.5659 108.338 20.5659C106.3 20.5659 104.668 22.2795 104.668 24.485C104.668 26.6904 106.3 28.404 108.338 28.404ZM108.338 27.1374C106.956 27.1374 105.882 25.99 105.882 24.485C105.882 22.9799 106.956 21.8325 108.338 21.8325C109.733 21.8325 110.808 22.9799 110.808 24.485C110.808 25.99 109.733 27.1374 108.338 27.1374Z" fill="white"/>
<path d="M114.667 22.0113V20.7596H113.453V28.2103H114.667V24.2614C114.667 22.5031 115.797 21.9368 116.844 21.9815V20.6255C115.965 20.6255 115.113 20.9682 114.667 22.0113Z" fill="white"/>
<path d="M118.501 25.081H124.348C124.376 24.8873 124.39 24.6936 124.39 24.4999C124.39 22.4137 123.023 20.5659 120.915 20.5659C118.739 20.5659 117.259 22.2795 117.259 24.485C117.259 26.7202 118.752 28.404 120.999 28.404C122.395 28.404 123.455 27.7335 124.069 26.7202L123.036 26.0943C122.688 26.7053 121.99 27.1821 121.027 27.1821C119.729 27.1821 118.738 26.4221 118.501 25.081ZM120.915 21.7878C121.962 21.7878 122.953 22.4733 123.162 23.9485H118.501C118.697 22.6521 119.604 21.7878 120.915 21.7878Z" fill="white"/>
<path fill-rule="evenodd" clip-rule="evenodd" d="M17.3673 16.7212H20.258C20.258 11.8664 27.2217 11.8328 27.2217 16.7212H30.1123C30.1123 17.9789 29.5128 24.3197 28.9554 25.147C28.5284 25.7806 27.6183 26.434 26.9589 26.434H20.5207C19.8082 26.434 18.927 25.6757 18.6013 25.2013C18.087 24.4521 18.1162 23.6288 18.0024 22.5182L17.3673 16.7212ZM11.8489 19.74C11.8489 23.4689 12.479 26.6206 14.2412 28.6381C14.5885 29.0358 14.4662 28.9619 14.8851 29.3074C15.8841 30.1314 16.4172 30.3496 17.6662 30.8605C20.426 31.9895 26.651 31.9534 29.5407 30.9818C30.8637 30.537 32.008 29.9524 32.9077 29.0951C35.6687 26.4644 35.6308 22.318 35.6308 18.5588C35.6308 11.5525 32.1053 7.92725 24.5939 7.92725C22.3079 7.92725 20.1841 7.94258 18.0718 8.63101C17.2584 8.89609 16.7124 9.13271 16.059 9.50783C12.7886 11.3849 11.8489 15.2553 11.8489 19.74Z" fill="white"/>
<path fill-rule="evenodd" clip-rule="evenodd" d="M21.7032 16.7212H25.7764C25.7764 15.5756 24.958 14.4899 23.9369 14.4899H23.8055C22.5341 14.4899 21.7032 15.4279 21.7032 16.7212Z" fill="white"/>
</svg>
