<svg width="131" height="40" viewBox="0 0 131 40" fill="none" xmlns="http://www.w3.org/2000/svg">
<path d="M0.0334778 4.36524C0.0334778 1.95439 1.99519 0 4.41509 0H126.224C128.644 0 130.606 1.95439 130.606 4.36524V34.922C130.606 37.3328 128.644 39.2872 126.224 39.2872H4.4151C1.9952 39.2872 0.0334778 37.3328 0.0334778 34.922V4.36524Z" fill="black"/>
<path fill-rule="evenodd" clip-rule="evenodd" d="M126.224 0.873049H4.41509C2.47917 0.873049 0.909801 2.43656 0.909801 4.36524V34.922C0.909801 36.8506 2.47918 38.4142 4.4151 38.4142H126.224C128.16 38.4142 129.729 36.8506 129.729 34.922V4.36524C129.729 2.43656 128.16 0.873049 126.224 0.873049ZM4.41509 0C1.99519 0 0.0334778 1.95439 0.0334778 4.36524V34.922C0.0334778 37.3328 1.9952 39.2872 4.4151 39.2872H126.224C128.644 39.2872 130.606 37.3328 130.606 34.922V4.36524C130.606 1.95439 128.644 0 126.224 0H4.41509Z" fill="white"/>
<path d="M42.7872 13.7657V9.24365H46.4319V9.77729H43.4542V11.1623H46.2428V11.6929H43.4542V13.2321H46.5488V13.7657H42.7872Z" fill="white"/>
<path d="M46.9786 13.7657L48.3127 12.063L47.0783 10.4898H47.8519L48.4124 11.2579C48.5178 11.4039 48.6026 11.5263 48.6668 11.625C48.7677 11.4893 48.8605 11.369 48.9453 11.2641L49.5608 10.4898H50.3001L49.0382 12.0322L50.3963 13.7657H49.6364L48.8869 12.7478L48.6874 12.4733L47.7281 13.7657H46.9786Z" fill="white"/>
<path d="M50.9121 15.0212V10.4898H51.476V10.9155C51.6089 10.749 51.7591 10.6245 51.9264 10.5423C52.0937 10.458 52.2966 10.4158 52.535 10.4158C52.8467 10.4158 53.1218 10.4878 53.3602 10.6317C53.5986 10.7757 53.7786 10.9793 53.9 11.2425C54.0215 11.5037 54.0823 11.7905 54.0823 12.1031C54.0823 12.4383 54.0147 12.7406 53.8794 13.01C53.7465 13.2773 53.5516 13.483 53.2949 13.6269C53.0404 13.7688 52.7723 13.8398 52.4903 13.8398C52.284 13.8398 52.0983 13.8007 51.9333 13.7225C51.7705 13.6444 51.6364 13.5457 51.531 13.4264V15.0212H50.9121ZM51.4725 12.1463C51.4725 12.5679 51.5677 12.8794 51.7579 13.0809C51.9482 13.2825 52.1786 13.3832 52.449 13.3832C52.7241 13.3832 52.9591 13.2794 53.1539 13.0717C53.351 12.8619 53.4496 12.538 53.4496 12.1C53.4496 11.6826 53.3533 11.37 53.1608 11.1623C52.9705 10.9546 52.7425 10.8507 52.4765 10.8507C52.2129 10.8507 51.9791 10.9618 51.7751 11.1839C51.5734 11.4039 51.4725 11.7247 51.4725 12.1463Z" fill="white"/>
<path d="M54.8181 13.7657V9.24365H55.437V13.7657H54.8181Z" fill="white"/>
<path d="M56.1694 12.1278C56.1694 11.5211 56.3573 11.0718 56.7333 10.7798C57.0473 10.5371 57.4301 10.4158 57.8817 10.4158C58.3837 10.4158 58.794 10.5639 59.1126 10.86C59.4313 11.1541 59.5906 11.5612 59.5906 12.0815C59.5906 12.5031 59.5195 12.8352 59.3774 13.0779C59.2376 13.3185 59.0324 13.5056 58.7619 13.6393C58.4937 13.7729 58.2003 13.8398 57.8817 13.8398C57.3705 13.8398 56.9568 13.6927 56.6404 13.3987C56.3264 13.1046 56.1694 12.681 56.1694 12.1278ZM56.8055 12.1278C56.8055 12.5473 56.9075 12.8619 57.1115 13.0717C57.3155 13.2794 57.5722 13.3832 57.8817 13.3832C58.1889 13.3832 58.4444 13.2784 58.6485 13.0686C58.8525 12.8589 58.9545 12.5391 58.9545 12.1093C58.9545 11.7042 58.8513 11.3978 58.645 11.1901C58.441 10.9803 58.1866 10.8754 57.8817 10.8754C57.5722 10.8754 57.3155 10.9793 57.1115 11.187C56.9075 11.3947 56.8055 11.7083 56.8055 12.1278Z" fill="white"/>
<path d="M60.3126 13.7657V10.4898H60.8696V10.9865C61.0118 10.7541 61.1424 10.6009 61.2616 10.5269C61.3831 10.4528 61.5161 10.4158 61.6605 10.4158C61.8691 10.4158 62.0811 10.4755 62.2966 10.5947L62.0834 11.1099C61.9321 11.0297 61.7808 10.9896 61.6295 10.9896C61.4943 10.9896 61.3728 11.0266 61.2651 11.1006C61.1573 11.1726 61.0805 11.2733 61.0347 11.4029C60.9659 11.6003 60.9315 11.8162 60.9315 12.0507V13.7657H60.3126Z" fill="white"/>
<path d="M65.1642 12.7108L65.8037 12.7817C65.7029 13.1169 65.5161 13.3771 65.2433 13.5621C64.9705 13.7472 64.6221 13.8398 64.198 13.8398C63.6639 13.8398 63.2398 13.6927 62.9258 13.3987C62.6141 13.1025 62.4582 12.6882 62.4582 12.1556C62.4582 11.6044 62.6164 11.1767 62.9327 10.8723C63.249 10.568 63.6593 10.4158 64.1636 10.4158C64.6519 10.4158 65.0507 10.5649 65.3602 10.8631C65.6696 11.1613 65.8244 11.5808 65.8244 12.1216C65.8244 12.1545 65.8232 12.2039 65.8209 12.2697H63.0977C63.1206 12.6296 63.2341 12.9051 63.4381 13.0964C63.6421 13.2876 63.8966 13.3832 64.2014 13.3832C64.4284 13.3832 64.6221 13.3298 64.7825 13.2228C64.943 13.1159 65.0702 12.9452 65.1642 12.7108ZM63.1321 11.8132H65.1711C65.1436 11.5376 65.0656 11.3309 64.9373 11.1931C64.7401 10.9793 64.4845 10.8723 64.1705 10.8723C63.8863 10.8723 63.6467 10.9577 63.4519 11.1284C63.2593 11.2991 63.1527 11.5273 63.1321 11.8132Z" fill="white"/>
<path d="M68.5476 9.88217V9.24365H69.1665V9.88217H68.5476ZM68.5476 13.7657V10.4898H69.1665V13.7657H68.5476Z" fill="white"/>
<path d="M71.4633 13.2691L71.5527 13.7596C71.3785 13.7925 71.2226 13.8089 71.0851 13.8089C70.8605 13.8089 70.6862 13.777 70.5625 13.7133C70.4387 13.6495 70.3516 13.5663 70.3011 13.4634C70.2507 13.3586 70.2255 13.1396 70.2255 12.8064V10.9217H69.7716V10.4898H70.2255V9.67859L70.841 9.34545V10.4898H71.4633V10.9217H70.841V12.8373C70.841 12.9956 70.8513 13.0974 70.8719 13.1426C70.8948 13.1879 70.9304 13.2239 70.9785 13.2506C71.0289 13.2773 71.1 13.2907 71.1917 13.2907C71.2605 13.2907 71.351 13.2835 71.4633 13.2691Z" fill="white"/>
<path d="M73.8014 12.1278C73.8014 11.5211 73.9894 11.0718 74.3653 10.7798C74.6794 10.5371 75.0622 10.4158 75.5137 10.4158C76.0157 10.4158 76.4261 10.5639 76.7447 10.86C77.0633 11.1541 77.2226 11.5612 77.2226 12.0815C77.2226 12.5031 77.1516 12.8352 77.0094 13.0779C76.8696 13.3185 76.6644 13.5056 76.394 13.6393C76.1258 13.7729 75.8324 13.8398 75.5137 13.8398C75.0026 13.8398 74.5888 13.6927 74.2725 13.3987C73.9584 13.1046 73.8014 12.681 73.8014 12.1278ZM74.4375 12.1278C74.4375 12.5473 74.5395 12.8619 74.7435 13.0717C74.9475 13.2794 75.2043 13.3832 75.5137 13.3832C75.8209 13.3832 76.0765 13.2784 76.2805 13.0686C76.4845 12.8589 76.5865 12.5391 76.5865 12.1093C76.5865 11.7042 76.4834 11.3978 76.2771 11.1901C76.073 10.9803 75.8186 10.8754 75.5137 10.8754C75.2043 10.8754 74.9475 10.9793 74.7435 11.187C74.5395 11.3947 74.4375 11.7083 74.4375 12.1278Z" fill="white"/>
<path d="M77.9515 13.7657V10.4898H78.5086V10.9556C78.7768 10.5958 79.1642 10.4158 79.6707 10.4158C79.8908 10.4158 80.0925 10.4518 80.2759 10.5238C80.4616 10.5937 80.6003 10.6862 80.6919 10.8014C80.7836 10.9166 80.8478 11.0533 80.8845 11.2117C80.9074 11.3145 80.9189 11.4944 80.9189 11.7515V13.7657H80.3V11.7731C80.3 11.5468 80.2759 11.3782 80.2278 11.2672C80.1796 11.1541 80.0937 11.0646 79.9699 10.9988C79.8484 10.931 79.7051 10.897 79.5401 10.897C79.2765 10.897 79.0484 10.9721 78.8558 11.1222C78.6656 11.2723 78.5705 11.5571 78.5705 11.9766V13.7657H77.9515Z" fill="white"/>
<path d="M49.9774 29.1168H51.5422L47.4168 17.8166H45.7571L41.6317 29.1168H43.1965L44.0975 26.5823H49.0764L49.9774 29.1168ZM44.6033 25.1779L46.579 19.6085L48.5706 25.1779H44.6033Z" fill="white"/>
<path d="M57.0677 20.8353C55.7241 20.8353 54.7125 21.4488 54.0803 22.4335V21.0452H52.7052V32.3455H54.0803V27.7285C54.7125 28.7132 55.7241 29.3267 57.0677 29.3267C59.2647 29.3267 61.0666 27.4702 61.0666 25.081C61.0666 22.6918 59.2647 20.8353 57.0677 20.8353ZM56.8938 27.9706C55.2974 27.9706 54.0803 26.7276 54.0803 25.081C54.0803 23.4344 55.2974 22.1914 56.8938 22.1914C58.4744 22.1914 59.6915 23.4344 59.6915 25.081C59.6915 26.7276 58.4744 27.9706 56.8938 27.9706Z" fill="white"/>
<path d="M67.07 20.8353C65.7265 20.8353 64.7149 21.4488 64.0827 22.4335V21.0452H62.7075V32.3455H64.0827V27.7285C64.7149 28.7132 65.7265 29.3267 67.07 29.3267C69.2671 29.3267 71.069 27.4702 71.069 25.081C71.069 22.6918 69.2671 20.8353 67.07 20.8353ZM66.8962 27.9706C65.2997 27.9706 64.0827 26.7276 64.0827 25.081C64.0827 23.4344 65.2997 22.1914 66.8962 22.1914C68.4768 22.1914 69.6939 23.4344 69.6939 25.081C69.6939 26.7276 68.4768 27.9706 66.8962 27.9706Z" fill="white"/>
<path d="M83.5213 23.5151H77.9891V24.8711H82.0513C81.7668 26.5662 80.4075 27.8576 78.1156 27.8576C75.476 27.8576 73.7215 25.9205 73.7215 23.4667C73.7215 20.9968 75.4918 19.0596 78.0524 19.0596C79.6172 19.0596 80.9607 19.8829 81.593 21.0936L82.8574 20.3349C81.9407 18.7206 80.1388 17.6067 78.0682 17.6067C74.7015 17.6067 72.2673 20.2219 72.2673 23.4667C72.2673 26.6953 74.6856 29.3267 78.0998 29.3267C81.4349 29.3267 83.5213 27.0666 83.5213 24.1931V23.5151Z" fill="white"/>
<path d="M91.7103 21.0452V22.4335C91.078 21.4488 90.0664 20.8353 88.7229 20.8353C86.5258 20.8353 84.7239 22.6918 84.7239 25.081C84.7239 27.4702 86.5258 29.3267 88.7229 29.3267C90.0664 29.3267 91.078 28.7132 91.7103 27.7285V29.1168H93.0854V21.0452H91.7103ZM88.8968 27.9706C87.3162 27.9706 86.0991 26.7276 86.0991 25.081C86.0991 23.4344 87.3162 22.1914 88.8968 22.1914C90.4932 22.1914 91.7103 23.4344 91.7103 25.081C91.7103 26.7276 90.4932 27.9706 88.8968 27.9706Z" fill="white"/>
<path d="M95.1689 29.1168H96.544V17.3323H95.1689V29.1168Z" fill="white"/>
<path d="M98.6419 29.1168H100.017V17.3323H98.6419V29.1168Z" fill="white"/>
<path d="M103.079 25.7267H109.702C109.734 25.5169 109.749 25.307 109.749 25.0972C109.749 22.8371 108.2 20.8353 105.814 20.8353C103.348 20.8353 101.672 22.6918 101.672 25.081C101.672 27.5025 103.364 29.3267 105.908 29.3267C107.489 29.3267 108.69 28.6002 109.386 27.5025L108.216 26.8245C107.821 27.4863 107.031 28.0029 105.94 28.0029C104.47 28.0029 103.348 27.1796 103.079 25.7267ZM105.814 22.1591C106.999 22.1591 108.121 22.9017 108.358 24.4999H103.079C103.3 23.0954 104.328 22.1591 105.814 22.1591Z" fill="white"/>
<path d="M112.705 22.4012V21.0452H111.33V29.1168H112.705V24.8389C112.705 22.934 113.986 22.3205 115.171 22.369V20.8999C114.175 20.8999 113.211 21.2712 112.705 22.4012Z" fill="white"/>
<path d="M122.203 21.0452L119.927 27.3733L117.24 21.0452H115.77L119.215 29.0845L119.073 29.3912C118.662 30.4567 117.998 31.1186 116.939 31.0379V32.3455C118.551 32.4585 119.784 31.4253 120.448 29.6173L123.673 21.0452H122.203Z" fill="white"/>
<path fill-rule="evenodd" clip-rule="evenodd" d="M29.9805 6.3418H17.5602C14.0245 6.3418 11.1317 9.23454 11.1317 12.7702V25.1906C11.1317 28.7262 14.0245 31.619 17.5602 31.619H29.9805C33.5162 31.619 36.4089 28.7262 36.4089 25.1906V12.7702C36.4089 9.23454 33.5162 6.3418 29.9805 6.3418ZM16.4869 22.2746C16.6409 22.2799 16.6888 22.2215 16.6888 22.0674C16.6824 21.7807 16.6817 21.494 16.6811 21.2084C16.6807 21.0178 16.6802 20.8277 16.6781 20.6385C16.6781 20.5043 16.6787 20.3696 16.6793 20.2344C16.6805 19.9629 16.6817 19.6898 16.6781 19.4168C16.6755 19.1797 16.6938 19.0771 16.6513 19.0327C16.6081 18.9876 16.5022 19.0025 16.2479 18.9971C16.1151 18.9918 16.0672 19.0396 16.0672 19.1724C16.0699 19.3371 16.0699 19.5004 16.0699 19.6638C16.0699 19.8271 16.0699 19.9905 16.0726 20.1551C16.0779 20.2932 16.0301 20.3517 15.8866 20.3517C15.4829 20.3464 15.0845 20.3464 14.6808 20.3517C14.5321 20.3517 14.4843 20.2826 14.4896 20.1445C14.4931 19.9749 14.492 19.8053 14.4908 19.6342C14.4902 19.548 14.4896 19.4614 14.4896 19.3743C14.4869 19.1608 14.5017 19.0666 14.4618 19.0258C14.4223 18.9853 14.3292 18.9971 14.1125 18.9971C13.884 18.9971 13.884 19.0024 13.884 19.2362C13.884 19.5285 13.8835 19.8203 13.8829 20.1118C13.8817 20.6944 13.8805 21.2761 13.884 21.8603C13.8867 22.0975 13.8671 22.2 13.909 22.2444C13.9515 22.2894 14.0575 22.2745 14.3143 22.2799C14.4471 22.2799 14.4949 22.2321 14.4949 22.0993C14.4923 21.932 14.4923 21.766 14.4923 21.6C14.4923 21.434 14.4923 21.268 14.4896 21.1006C14.4896 20.9678 14.5374 20.8988 14.6755 20.8988H15.8973C16.0248 20.8988 16.0779 20.9572 16.0779 21.0847C16.0743 21.2584 16.0755 21.4345 16.0767 21.6098C16.0773 21.6972 16.0779 21.7843 16.0779 21.8709C16.0805 22.0927 16.0661 22.1911 16.1084 22.2353C16.1511 22.28 16.2519 22.2692 16.4869 22.2746ZM20.5187 20.1286H20.524C20.524 20.0615 20.5238 19.9945 20.5235 19.9278C20.5227 19.6616 20.5218 19.3975 20.5346 19.1299C20.5399 19.0343 20.508 18.9918 20.4124 18.9918C20.3009 18.9971 20.1946 18.9971 20.0884 18.9918C19.9662 18.9812 19.9343 19.029 19.9343 19.1512C19.9396 19.7089 19.9396 20.2667 19.9343 20.8244C19.929 21.1644 19.8706 21.499 19.5094 21.6584C18.9516 21.9027 18.3514 21.584 18.3567 20.9413C18.362 20.4314 18.362 19.9214 18.3567 19.4115C18.3541 19.1742 18.3737 19.0717 18.3317 19.0273C18.2892 18.9823 18.1833 18.9972 17.9264 18.9918C17.7936 18.9865 17.7458 19.0343 17.7458 19.1671C17.7481 19.4449 17.7475 19.7227 17.7468 20.0006C17.7459 20.3708 17.7451 20.741 17.7511 21.1113C17.7564 21.4194 17.8733 21.6956 18.0911 21.924C18.532 22.3808 19.0897 22.3437 19.6263 22.2321C20.184 22.1205 20.508 21.6371 20.5187 21.0635C20.5222 20.8547 20.521 20.6483 20.5198 20.4412C20.5192 20.3373 20.5187 20.2332 20.5187 20.1286ZM33.6562 21.1652C33.6574 20.5862 33.6586 20.008 33.655 19.4274C33.6524 19.1788 33.6756 19.0707 33.6324 19.0244C33.588 18.9767 33.4732 18.9945 33.1876 18.9918H33.1557C33.0813 18.9918 33.0601 19.029 33.0601 19.1034V20.6173H33.0707V21.8762C33.0707 22.0647 33.0707 22.159 33.1178 22.2055C33.165 22.252 33.2593 22.2507 33.4479 22.248C33.6444 22.248 33.655 22.2374 33.655 22.0355C33.655 21.745 33.6556 21.455 33.6562 21.1652ZM29.9526 22.248C30.6378 22.2427 31.3284 22.2427 32.0136 22.248C32.1677 22.248 32.2261 22.1896 32.2102 22.0409V21.9612C32.2102 21.7328 32.2102 21.7275 31.9765 21.7275H30.606C30.4041 21.7275 30.3723 21.7009 30.3723 21.4937C30.3723 21.4426 30.3728 21.3908 30.3734 21.3389C30.3746 21.2344 30.3758 21.1292 30.3723 21.0263C30.3669 20.8829 30.4201 20.8191 30.5688 20.8244C30.7563 20.828 30.9414 20.8268 31.1273 20.8256C31.2206 20.825 31.314 20.8244 31.4081 20.8244C31.6046 20.8244 31.6046 20.8244 31.5993 20.6173C31.5993 20.604 31.599 20.5907 31.5986 20.5774C31.5976 20.5376 31.5966 20.4977 31.6046 20.4579C31.6365 20.3145 31.5674 20.2826 31.44 20.2826C31.2525 20.2862 31.0673 20.285 30.8814 20.2838C30.7882 20.2832 30.6947 20.2826 30.6007 20.2826C30.3882 20.2826 30.3723 20.2667 30.3723 20.0489C30.3723 20.0131 30.3729 19.9779 30.3735 19.943C30.3746 19.8746 30.3758 19.8077 30.3723 19.7408C30.3616 19.5921 30.4254 19.5283 30.5794 19.5336C30.8448 19.5372 31.1126 19.536 31.3811 19.5348C31.5157 19.5342 31.6505 19.5336 31.7852 19.5336C31.9813 19.5336 32.0704 19.5469 32.111 19.5086C32.1518 19.4703 32.1438 19.38 32.1464 19.1724C32.1464 19.029 32.0933 18.9865 31.9552 18.9865C31.2912 18.9918 30.6219 18.9918 29.9579 18.9865C29.7986 18.9865 29.7614 19.0449 29.7614 19.1937C29.7693 19.5483 29.7684 19.9029 29.7674 20.2575C29.767 20.3756 29.7667 20.4938 29.7667 20.6119C29.7667 20.7731 29.7673 20.9342 29.7679 21.0953C29.7691 21.4176 29.7702 21.7398 29.7667 22.0621C29.7614 22.2055 29.8145 22.248 29.9526 22.248ZM28.5405 20.5931C28.7069 20.1093 28.873 19.6263 29.0443 19.1459C29.0868 19.029 29.0549 18.9865 28.9434 19.0024C28.8318 19.0077 28.7256 19.0077 28.6193 19.0024C28.5131 18.9918 28.4547 19.0449 28.4228 19.1459L27.8013 21.0741C27.7993 21.0801 27.7974 21.0864 27.7954 21.0927C27.7818 21.137 27.7667 21.1863 27.711 21.1909C27.6528 21.1951 27.6434 21.1505 27.6344 21.108C27.6319 21.0962 27.6295 21.0845 27.626 21.0741C27.5605 20.8777 27.4957 20.6813 27.4308 20.4849C27.3009 20.0917 27.171 19.6984 27.0364 19.3052C26.9212 18.9755 26.9144 18.9758 26.5738 18.9911L26.5583 18.9918C26.4574 18.9971 26.4096 19.0396 26.3777 19.1352C26.2715 19.4619 26.1639 19.7873 26.0563 20.1126C25.9488 20.438 25.8412 20.7633 25.735 21.09L25.7336 21.0941C25.7181 21.1408 25.7014 21.1909 25.6446 21.1909C25.5867 21.1909 25.5727 21.1471 25.5586 21.1032C25.5572 21.0988 25.5558 21.0944 25.5543 21.09L25.5523 21.0837C25.3511 20.4537 25.15 19.8237 24.9541 19.1884C24.9116 19.0502 24.8479 18.9653 24.6938 18.9918C24.6655 18.9954 24.6371 18.9942 24.6088 18.993C24.5947 18.9924 24.5805 18.9918 24.5663 18.9918H24.3751C24.2795 18.9865 24.2264 19.0131 24.2795 19.1193C24.2906 19.1378 24.2965 19.1588 24.3027 19.1806C24.3054 19.1902 24.3081 19.1999 24.3114 19.2096C24.471 19.6673 24.632 20.1264 24.793 20.5854C24.9534 21.0427 25.1138 21.4999 25.2728 21.9559C25.3666 22.2321 25.3684 22.2322 25.6595 22.2421L25.6765 22.2427C25.8412 22.248 25.9103 22.1896 25.9634 22.0355C26.1035 21.6076 26.2517 21.1823 26.4004 20.7559C26.4602 20.5842 26.5201 20.4124 26.5795 20.2401C26.5819 20.233 26.584 20.2256 26.5862 20.2181C26.5986 20.1748 26.6118 20.1286 26.6752 20.1286C26.7283 20.1286 26.7495 20.1711 26.7601 20.2136C26.8828 20.6277 27.0277 21.0362 27.1727 21.4453C27.2286 21.6029 27.2845 21.7606 27.3391 21.9187C27.4023 22.103 27.4146 22.1816 27.4601 22.2153C27.5064 22.2496 27.5871 22.2374 27.7907 22.2427C27.9288 22.2427 27.9925 22.1896 28.035 22.0621C28.1253 21.7806 28.2262 21.4937 28.3272 21.2122C28.3986 21.0058 28.4696 20.7994 28.5405 20.5931ZM23.7703 14.6183C26.1596 14.6183 28.0965 12.6814 28.0965 10.2921H27.5373C27.5373 12.3726 25.8508 14.0591 23.7703 14.0591C21.6898 14.0591 20.0033 12.3726 20.0033 10.2921H19.4441C19.4441 12.6814 21.381 14.6183 23.7703 14.6183ZM24.0732 21.5316C24.1563 21.7173 24.2393 21.903 24.322 22.0886C24.3804 22.2161 24.3485 22.2533 24.2157 22.2427H24.0564C24.0071 22.2418 23.9662 22.2429 23.9317 22.2438C23.7507 22.2484 23.7457 22.2486 23.6208 21.9452C23.5197 21.703 23.4919 21.6022 23.4265 21.5612C23.3615 21.5203 23.2591 21.5388 23.0099 21.5362C22.9053 21.5362 22.8012 21.5368 22.6973 21.5374C22.4902 21.5385 22.2838 21.5397 22.075 21.5362C21.9475 21.5362 21.8626 21.584 21.8148 21.7062C21.7793 21.7982 21.7392 21.8903 21.6991 21.9824C21.679 22.0284 21.6589 22.0745 21.6395 22.1205C21.6356 22.1291 21.632 22.1384 21.6283 22.1479C21.6113 22.1911 21.5927 22.2383 21.5492 22.2427C21.3739 22.2533 21.1986 22.2639 21.0233 22.248C20.9612 22.2436 20.988 22.191 21.0078 22.1521C21.0117 22.1444 21.0153 22.1373 21.018 22.1311C21.1055 21.9322 21.193 21.7346 21.2805 21.5371C21.3683 21.3389 21.4561 21.1407 21.5438 20.9413C21.6005 20.8128 21.6575 20.6842 21.7145 20.5553C21.9193 20.0925 22.1253 19.6271 22.3247 19.1618C22.3725 19.0396 22.4469 19.0024 22.5744 18.9865C22.8559 18.9546 22.9993 19.0449 23.1109 19.3211C23.4161 20.0629 23.7449 20.7979 24.0732 21.5316ZM22.6594 21.0156H23.0471C23.1799 21.0156 23.2118 20.9466 23.1587 20.835C23.0923 20.6837 23.0259 20.531 22.9595 20.3783C22.8931 20.2255 22.8267 20.0728 22.7603 19.9214C22.7443 19.8842 22.7178 19.847 22.67 19.8417C22.6169 19.8364 22.5956 19.8842 22.5797 19.9214C22.4416 20.2295 22.3088 20.5376 22.176 20.851C22.1282 20.9572 22.1707 21.0156 22.2875 21.0156H22.6594Z" fill="#FEFEFE"/>
</svg>
