<svg width="132" height="40" viewBox="0 0 132 40" fill="none" xmlns="http://www.w3.org/2000/svg">
<path d="M126.032 38.1279H4.22826C2.21042 38.2232 0.559463 36.5075 0.467743 34.4104V34.3151V3.81279C0.467743 1.71576 2.1187 0 4.13654 0H4.22826H126.124C128.142 0 129.884 1.71576 129.884 3.81279V34.3151C129.793 36.4122 128.142 38.1279 126.032 38.1279Z" fill="black"/>
<path d="M31.791 18.3005C31.791 15.1202 34.6418 13.6235 34.7436 13.53C33.6237 11.9398 31.6892 11.0044 29.6529 11.0044C27.6167 10.8173 25.4786 12.1268 24.4604 12.1268C23.3405 12.1268 21.7115 11.0044 19.8788 11.0044C17.5371 11.0044 15.399 12.2204 14.2791 14.1847C11.8355 18.0199 13.6682 23.7259 16.0099 26.8128C17.1298 28.3094 18.5552 29.9932 20.2861 29.9932C22.0169 29.8996 22.7296 28.9642 24.7659 28.9642C26.904 28.9642 27.5149 29.9932 29.2457 29.8996C31.0783 29.8996 32.3001 28.403 33.4201 26.8128C34.7436 25.0355 35.3545 23.3518 35.3545 23.2582C35.3545 23.2582 31.791 22.0422 31.791 18.3005ZM28.3294 8.94646C29.3475 7.82396 29.8566 6.42085 29.7548 4.92419C28.4312 5.01774 26.7003 5.76606 25.6822 6.79501C24.7659 7.73042 24.0532 9.22708 24.2568 10.6302C25.784 10.8173 27.3112 9.97541 28.3294 8.94646Z" fill="white"/>
<path d="M51.5004 29.0067H49.3646L48.2077 25.6595H44.1141L42.9573 29.0067H40.9105L45.0041 17.5772H47.4958L51.5004 29.0067ZM47.8517 24.19L46.7839 21.2509L46.1609 19.1283L45.538 21.2509L44.4701 24.19H47.8517ZM61.9122 24.7614C62.0012 25.986 61.5563 27.2106 60.6664 28.1086C59.9544 28.8434 58.9755 29.1699 57.9077 29.1699C56.7508 29.1699 55.8609 28.7617 55.3269 28.027V32.3539H53.2802V23.4552L53.1912 20.7611H54.971L55.06 22.0673C55.6829 21.0877 56.8398 20.5162 58.0856 20.5978C59.1535 20.5978 60.0434 21.006 60.7554 21.7408C61.5563 22.5572 62.0012 23.6185 61.9122 24.7614ZM59.8654 24.8431C59.8654 24.0267 59.6875 23.3736 59.2425 22.8837C58.7976 22.3123 58.2636 22.0673 57.4627 22.0673C56.9288 22.0673 56.4838 22.2306 56.1279 22.4755C55.6829 22.8021 55.5049 23.1286 55.3269 23.6185L55.2379 24.19V25.5778C55.2379 26.1493 55.4159 26.6391 55.8609 27.129C56.3058 27.5372 56.7508 27.7821 57.4627 27.7821C58.1746 27.7821 58.7976 27.5372 59.2425 26.9657C59.6875 26.3126 59.8654 25.5778 59.8654 24.8431ZM72.2351 24.7614C72.3241 25.986 71.8792 27.2106 70.9892 28.1086C70.2773 28.8434 69.2984 29.1699 68.2305 29.1699C67.0737 29.1699 66.1838 28.7617 65.6498 28.027V32.3539H63.603V23.4552L63.5141 20.7611H65.2939L65.4718 22.0673C66.0948 21.0877 67.2517 20.5162 68.4975 20.5978C69.5654 20.5978 70.4553 21.006 71.1672 21.7408C71.8792 22.4755 72.2351 23.5368 72.2351 24.7614ZM70.1883 24.8431C70.1883 24.0267 70.0104 23.3736 69.5654 22.8837C69.1205 22.3123 68.5865 22.0673 67.7856 22.0673C67.2517 22.0673 66.8067 22.2306 66.4507 22.4755C66.0058 22.8021 65.8278 23.1286 65.6498 23.6185L65.5608 24.19V25.5778C65.5608 26.1493 65.7388 26.6391 66.1838 27.129C66.6287 27.5372 67.0737 27.7821 67.7856 27.7821C68.4975 27.7821 69.1205 27.5372 69.5654 26.9657C70.0104 26.3942 70.1883 25.7411 70.1883 24.8431ZM83.8929 25.7411C83.8929 26.7208 83.5369 27.5372 82.825 28.1086C82.0241 28.7617 80.8672 29.0883 79.4433 29.0883C78.1085 29.0883 77.0406 28.8434 76.2397 28.3535L76.6846 26.8024C77.5745 27.2922 78.5534 27.5372 79.6213 27.5372C80.3332 27.5372 80.9562 27.3739 81.4011 27.0473C81.8461 26.7208 82.0241 26.3126 82.0241 25.8227C82.0241 25.3329 81.8461 25.0063 81.4901 24.6798C81.1342 24.3532 80.6002 24.1083 79.7993 23.7818C77.5745 23.047 76.5067 21.9857 76.5067 20.5162C76.5067 19.6182 76.8626 18.8018 77.6635 18.2303C78.4644 17.6588 79.4433 17.3323 80.6892 17.3323C81.8461 17.3323 82.736 17.4956 83.5369 17.9037L83.003 19.3733C82.291 19.0467 81.4011 18.8834 80.6002 18.8834C79.8883 18.8834 79.3543 19.0467 78.9094 19.3733C78.5534 19.6182 78.3755 20.0264 78.3755 20.4346C78.3755 20.9244 78.5534 21.2509 78.9094 21.5775L80.6892 22.4755C81.5791 22.8021 82.38 23.2103 83.0919 23.8634C83.6259 24.3532 83.8929 25.0063 83.8929 25.7411ZM90.4781 22.149H88.2534V26.1493C88.2534 27.129 88.6094 27.7004 89.4103 27.7004L90.3002 27.6188L90.3892 29.0067C90.0332 29.1699 89.4993 29.1699 88.7873 29.1699C87.9864 29.1699 87.3635 28.925 86.9185 28.5168C86.4736 28.1086 86.2066 27.3739 86.2066 26.3126V22.149H85.0497V20.7611H86.3846V19.2916L88.3424 18.7201V20.7611H90.5671V22.149H90.4781ZM100.445 24.7614C100.445 25.986 100.089 27.0473 99.2882 27.8637C98.4873 28.6801 97.3304 29.0883 95.9955 29.0883C94.6607 29.0883 93.5928 28.6801 92.7919 27.8637C91.991 27.0473 91.635 26.0676 91.635 24.8431C91.635 23.5368 92.08 22.5572 92.8809 21.7408C93.6818 20.9244 94.7497 20.5162 96.1735 20.5162C97.5084 20.5162 98.5763 20.9244 99.3772 21.7408C100.089 22.5572 100.445 23.5368 100.445 24.7614ZM98.3983 24.8431C98.3983 24.1083 98.2203 23.4552 97.8643 22.8837C97.4194 22.2306 96.8855 21.9041 96.0845 21.9041C95.2836 21.9041 94.6607 22.2306 94.2157 22.8837C93.8598 23.4552 93.6818 24.1083 93.6818 24.8431C93.6818 25.5778 93.8598 26.2309 94.2157 26.8024C94.6607 27.4555 95.2836 27.7821 95.9955 27.7821C96.7965 27.7821 97.3304 27.4555 97.7754 26.8024C98.2203 26.3126 98.3983 25.5778 98.3983 24.8431ZM107.03 22.3939L106.407 22.3123C105.785 22.3123 105.162 22.5572 104.806 23.047C104.45 23.4552 104.272 24.0267 104.272 24.6798V29.0067H102.225V23.3736L102.136 20.7611H103.916L104.005 22.3123H104.094C104.272 21.8224 104.628 21.3326 105.073 21.006C105.518 20.6795 105.962 20.5978 106.496 20.5978H107.03V22.3939ZM116.018 24.5165L115.929 25.3329H109.878C109.878 26.0676 110.145 26.7208 110.768 27.2106C111.302 27.6188 111.925 27.7821 112.726 27.7821C113.616 27.7821 114.417 27.6188 115.128 27.3739L115.484 28.6801C114.506 29.0067 113.527 29.1699 112.459 29.1699C111.213 29.2516 110.056 28.8434 109.166 28.027C108.365 27.2106 107.92 26.1493 108.009 25.0063C108.009 23.7818 108.365 22.7204 109.166 21.9041C109.878 21.006 111.035 20.5978 112.281 20.5978C113.616 20.5978 114.595 21.006 115.217 21.9041C115.751 22.5572 116.018 23.4552 116.018 24.5165ZM114.061 24.0267C114.061 23.5368 113.972 23.047 113.705 22.6388C113.349 22.149 112.726 21.9041 112.103 21.9041C111.48 21.9041 110.946 22.149 110.501 22.6388C110.145 23.047 109.967 23.5368 109.878 24.0267H114.061Z" fill="white"/>
<path d="M45.8904 10.8988C45.8904 11.8357 45.541 12.6165 44.9294 13.0849C44.3178 13.5534 43.4441 13.7876 42.3084 13.7876L40.9105 13.7095V8.40043L42.5705 8.32236C43.6189 8.32236 44.4052 8.55658 44.9294 8.94696C45.6283 9.41541 45.8904 10.04 45.8904 10.8988ZM44.842 10.8988C44.842 10.2742 44.6673 9.80578 44.3178 9.49348C43.9684 9.18118 43.3568 9.02503 42.6578 9.02503L41.8715 9.10311V13.0849H42.5705C43.2694 13.0849 43.881 12.9288 44.3178 12.5384C44.6673 12.148 44.842 11.6015 44.842 10.8988ZM51.3072 11.7576C51.3072 12.3822 51.1325 12.8507 50.6957 13.2411C50.2588 13.6314 49.7346 13.8657 49.123 13.8657C48.5115 13.8657 47.9873 13.7095 47.6378 13.3191C47.201 12.8507 47.0262 12.3822 47.0262 11.8357C47.0262 11.2111 47.201 10.7427 47.6378 10.3523C47.9873 9.96193 48.5115 9.80578 49.2104 9.80578C49.822 9.80578 50.3462 9.96193 50.783 10.3523C51.1325 10.6646 51.3072 11.133 51.3072 11.7576ZM50.2588 11.7576C50.2588 11.3673 50.1714 11.133 49.9967 10.8207C49.822 10.5085 49.4725 10.3523 49.123 10.3523C48.7736 10.3523 48.4241 10.5085 48.2494 10.8207L47.9873 11.7576C47.9873 12.148 48.0746 12.3822 48.2494 12.6945C48.4241 13.0068 48.7736 13.163 49.123 13.163C49.4725 13.163 49.822 13.0068 49.9967 12.6945C50.1714 12.4603 50.2588 12.148 50.2588 11.7576ZM58.5587 9.88385L57.1609 13.7095H56.2872L55.763 12.0699L55.4135 10.8207L55.064 12.0699L54.4525 13.7095H53.5788L52.2683 9.88385H53.2293L53.7535 11.7576L54.0156 13.0068L54.3651 11.7576L54.9767 9.88385H55.763L56.3745 11.6796L56.724 12.9288L56.9861 11.6796L57.5103 9.88385H58.5587ZM63.5387 13.7095H62.5776V11.5234C62.5776 10.8208 62.3155 10.5085 61.704 10.5085C61.4419 10.5085 61.1798 10.5865 61.005 10.8207C60.8303 10.9769 60.7429 11.2111 60.7429 11.4453V13.7095H59.7819V10.9769V9.88385H60.6556L60.7429 10.5085L61.2671 10.04C61.5292 9.88385 61.7913 9.80578 62.1408 9.80578C62.5776 9.80578 62.9271 9.88385 63.1892 10.1181C63.5387 10.4304 63.7134 10.8208 63.7134 11.3673V13.7095H63.5387ZM66.2471 13.7095H65.286V8.08813H66.2471V13.7095ZM71.926 11.7576C71.926 12.3822 71.7512 12.8507 71.3144 13.2411C70.8776 13.6314 70.3533 13.8657 69.7418 13.8657C69.1302 13.8657 68.606 13.7095 68.2565 13.3191C67.9071 12.9288 67.645 12.4603 67.645 11.9138C67.645 11.2892 67.8197 10.8207 68.2565 10.4304C68.606 10.04 69.2176 9.88385 69.8291 9.88385C70.4407 9.88385 70.9649 10.04 71.4018 10.4304C71.7512 10.6646 71.926 11.133 71.926 11.7576ZM70.9649 11.7576C70.9649 11.3673 70.8776 11.133 70.7028 10.8207C70.5281 10.5085 70.1786 10.3523 69.8291 10.3523C69.4797 10.3523 69.1302 10.5085 68.9555 10.8207C68.7807 11.055 68.6934 11.3673 68.6934 11.7576C68.6934 12.148 68.7807 12.3822 68.9555 12.6945C69.1302 13.0068 69.4797 13.163 69.8291 13.163C70.1786 13.163 70.5281 13.0068 70.7028 12.6945C70.8776 12.4603 70.9649 12.148 70.9649 11.7576ZM76.6438 13.7095H75.7701L75.6828 13.2411C75.4207 13.6314 74.9838 13.7876 74.3723 13.7876C73.9354 13.7876 73.5859 13.7095 73.4112 13.4753C73.1491 13.2411 73.0617 13.0068 73.0617 12.6945C73.0617 12.2261 73.3238 11.8357 73.7607 11.6015C74.2849 11.2892 74.9838 11.2111 75.5954 11.2111V11.133C75.5954 10.5865 75.3333 10.3523 74.7217 10.3523C74.2849 10.3523 73.9354 10.4304 73.5859 10.6646L73.4112 10.1181C73.848 9.88385 74.3723 9.80578 74.8965 9.80578C76.0322 9.80578 76.6438 10.3523 76.6438 11.3673V12.7726V13.7095ZM75.5954 12.3822V11.7576C74.547 11.7576 74.0228 11.9919 74.0228 12.5384L74.1975 13.0068L74.7217 13.163L75.3333 13.0068L75.6828 12.5384L75.5954 12.3822ZM82.148 13.7095H81.2743L81.1869 13.0849C80.9248 13.5534 80.488 13.7876 79.789 13.7876C79.2648 13.7876 78.828 13.6314 78.4785 13.2411C78.1291 12.8507 77.9543 12.3822 77.9543 11.8357C77.9543 11.2111 78.1291 10.7427 78.4785 10.3523C78.828 9.96193 79.2648 9.80578 79.789 9.80578C80.4006 9.80578 80.7501 9.96193 81.0122 10.3523V8.08813H81.9732V12.6945L82.148 13.7095ZM81.0996 12.0699V11.4453V11.2111L80.7501 10.6646C80.5754 10.5085 80.4006 10.4304 80.1385 10.4304C79.789 10.4304 79.5269 10.5865 79.2648 10.8207C79.0901 11.055 78.9154 11.3673 78.9154 11.8357C78.9154 12.2261 79.0027 12.5384 79.1775 12.7726C79.3522 13.0068 79.7017 13.163 80.0511 13.163C80.4006 13.163 80.6627 13.0849 80.8375 12.8507C81.0122 12.6165 81.0996 12.3822 81.0996 12.0699ZM90.4479 11.7576C90.4479 12.3822 90.2731 12.8507 89.8363 13.2411C89.3995 13.6314 88.8753 13.8657 88.2637 13.8657C87.6521 13.8657 87.1279 13.7095 86.7784 13.3191C86.429 12.9288 86.1669 12.4603 86.1669 11.9138C86.1669 11.2892 86.3416 10.8207 86.7784 10.4304C87.1279 9.96193 87.6521 9.80578 88.3511 9.80578C88.9626 9.80578 89.4868 9.96193 89.9237 10.3523C90.1858 10.6646 90.4479 11.133 90.4479 11.7576ZM89.3995 11.7576C89.3995 11.3673 89.3121 11.133 89.1374 10.8207C88.9626 10.5085 88.6132 10.3523 88.2637 10.3523C87.9142 10.3523 87.5648 10.5085 87.39 10.8207C87.2153 11.055 87.1279 11.3673 87.1279 11.7576C87.1279 12.148 87.2153 12.3822 87.39 12.6945C87.5648 13.0068 87.9142 13.163 88.2637 13.163C88.6132 13.163 88.9626 13.0068 89.1374 12.6945C89.3121 12.4603 89.3995 12.148 89.3995 11.7576ZM95.6026 13.7095H94.6415V11.5234C94.6415 10.8208 94.3794 10.5085 93.7678 10.5085C93.5057 10.5085 93.2436 10.5865 93.0689 10.8207C92.8942 10.9769 92.8068 11.2111 92.8068 11.4453V13.7095H91.8458V10.9769V9.88385H92.7194V10.4304L93.2436 9.96193C93.5057 9.80578 93.7678 9.7277 94.1173 9.7277C94.5542 9.7277 94.9036 9.80578 95.1657 10.04C95.5152 10.3523 95.6899 10.7427 95.6899 11.2892L95.6026 13.7095ZM102.155 10.5085H101.107V12.3822C101.107 12.8507 101.281 13.0849 101.631 13.0849L102.068 13.0068V13.6314L101.281 13.7095C100.932 13.7095 100.583 13.6314 100.408 13.3972C100.233 13.163 100.058 12.8507 100.058 12.3822V10.5085H99.4467V9.88385H100.058V9.10311L101.019 8.86888V9.80578H102.068L102.155 10.5085ZM107.222 13.7095H106.261V11.5234C106.261 10.8208 105.999 10.5085 105.388 10.5085C104.951 10.5085 104.601 10.7427 104.427 11.133L104.339 11.4453V13.7876H103.378V8.08813H104.339V10.4304C104.601 10.04 105.038 9.80578 105.65 9.80578C106.087 9.80578 106.349 9.88385 106.611 10.1181C106.96 10.4304 107.135 10.8207 107.135 11.4453L107.222 13.7095ZM112.552 11.6015V11.9919H109.669C109.669 12.3822 109.843 12.6945 110.106 12.8507C110.368 13.0068 110.63 13.0849 111.067 13.0849L112.202 12.9288L112.377 13.5534C111.94 13.7095 111.503 13.7876 110.892 13.7876C110.193 13.7876 109.669 13.6314 109.319 13.2411C108.97 12.8507 108.708 12.3822 108.708 11.8357C108.708 11.2892 108.882 10.7427 109.232 10.3523C109.581 9.96193 110.106 9.7277 110.717 9.7277C111.329 9.7277 111.853 9.96193 112.115 10.3523C112.377 10.7427 112.552 11.133 112.552 11.6015ZM111.591 11.3673L111.416 10.7427C111.241 10.5085 110.979 10.3523 110.63 10.3523C110.28 10.3523 110.018 10.4304 109.843 10.6646C109.669 10.8207 109.581 11.055 109.581 11.3673H111.591Z" fill="white"/>
<path fill-rule="evenodd" clip-rule="evenodd" d="M126.658 0.873049H4.84936C2.91344 0.873049 1.34407 2.43656 1.34407 4.36524V34.922C1.34407 36.8506 2.91344 38.4142 4.84936 38.4142H126.658C128.594 38.4142 130.164 36.8506 130.164 34.922V4.36524C130.164 2.43656 128.594 0.873049 126.658 0.873049ZM4.84936 0C2.42946 0 0.467743 1.95439 0.467743 4.36524V34.922C0.467743 37.3328 2.42946 39.2872 4.84936 39.2872H126.658C129.078 39.2872 131.04 37.3328 131.04 34.922V4.36524C131.04 1.95439 129.078 0 126.658 0H4.84936Z" fill="white"/>
</svg>
