<svg width="79" height="78" viewBox="0 0 79 78" fill="none" xmlns="http://www.w3.org/2000/svg">
<path d="M51.1923 59.4498H48.9358V55.1771C48.6563 55.1814 48.3323 55.1814 47.9636 55.176C47.9571 54.9052 47.9625 54.6235 47.9614 54.3528C48.4225 54.3897 48.8401 54.294 49.1555 54.0668C49.2599 53.9917 49.3545 53.7916 49.4458 53.635L51.1912 53.6285V59.4498H51.1923ZM47.6178 59.4574H41.3692C41.441 58.9843 41.6595 58.5406 42.0217 58.1241C42.3849 57.7087 43.0656 57.2172 44.0639 56.6506C44.6751 56.3037 45.0644 56.0394 45.2352 55.8611C45.4059 55.6817 45.4918 55.5098 45.4918 55.3478C45.4918 55.1727 45.407 55.0226 45.2384 54.8987C45.0688 54.7758 44.8567 54.7127 44.6011 54.7127C44.3347 54.7127 44.1183 54.7769 43.9487 54.9052C43.7812 55.0324 43.6681 55.2586 43.6083 55.5827L41.5225 55.4533C41.6041 55.0042 41.7552 54.654 41.9727 54.4017C42.1913 54.1505 42.498 53.9569 42.896 53.8232C43.2918 53.6883 43.8421 53.622 44.5457 53.622C45.2765 53.622 45.8474 53.6861 46.2563 53.8134C46.663 53.9417 46.9838 54.1385 47.2154 54.4028C47.4492 54.6681 47.5667 54.965 47.5667 55.2934C47.5667 55.6436 47.4319 55.9774 47.1654 56.295C46.899 56.6125 46.4118 56.9627 45.706 57.3444C45.2852 57.5662 45.0068 57.7207 44.8654 57.8098C44.724 57.8979 44.5566 58.0143 44.3663 58.1567H47.6178V59.4574ZM34.1136 59.4574H27.8649C27.9367 58.9843 28.1553 58.5406 28.5174 58.1241C28.8806 57.7087 29.5614 57.2172 30.5597 56.6506C31.1708 56.3037 31.5602 56.0394 31.7309 55.8611C31.9016 55.6817 31.9875 55.5098 31.9875 55.3478C31.9875 55.1727 31.9016 55.0226 31.7342 54.8987C31.5656 54.7758 31.3525 54.7127 31.0969 54.7127C30.8305 54.7127 30.6141 54.7769 30.4444 54.9052C30.2769 55.0324 30.1638 55.2586 30.104 55.5827L28.0183 55.4533C28.0998 55.0042 28.2499 54.654 28.4685 54.4017C28.686 54.1505 28.9937 53.9569 29.3917 53.8232C29.7887 53.6883 30.3378 53.622 31.0414 53.622C31.7733 53.622 32.3442 53.6861 32.752 53.8134C33.1587 53.9417 33.4806 54.1385 33.7123 54.4028C33.9461 54.6681 34.0635 54.965 34.0635 55.2934C34.0635 55.6436 33.9298 55.9774 33.6623 56.295C33.3958 56.6125 32.9075 56.9627 32.2029 57.3444C31.782 57.5662 31.5036 57.7207 31.3622 57.8098C31.2198 57.8979 31.0523 58.0143 30.8631 58.1567H34.1146V59.4574H34.1136ZM34.6105 56.5647C34.6105 55.4739 34.8889 54.7095 35.4435 54.2745C35.9981 53.8395 36.8442 53.6209 37.9784 53.6209C38.5243 53.6209 38.9735 53.6677 39.3226 53.7644C39.6738 53.859 39.9587 53.9841 40.1795 54.1364C40.4002 54.2886 40.5764 54.4485 40.7026 54.617C40.8309 54.7856 40.9331 54.9813 41.0103 55.2064C41.1615 55.636 41.2365 56.0818 41.2365 56.5451C41.2365 57.5869 40.9875 58.3492 40.4883 58.831C39.9914 59.3149 39.1344 59.5552 37.9164 59.5552C37.2357 59.5552 36.6833 59.4791 36.2624 59.3236C35.8416 59.1703 35.4979 58.9441 35.2271 58.6472C35.0325 58.4351 34.8802 58.1459 34.7726 57.7794C34.666 57.4129 34.6105 57.0073 34.6105 56.5647ZM36.8464 56.5679C36.8464 57.2987 36.9366 57.7968 37.1204 58.0643C37.302 58.3329 37.5685 58.4667 37.9132 58.4667C38.1416 58.4667 38.3395 58.409 38.508 58.2959C38.6766 58.1828 38.7995 58.0034 38.8778 57.7587C38.9572 57.513 38.9974 57.1302 38.9974 56.6104C38.9974 55.8491 38.9071 55.3358 38.7234 55.0738C38.5417 54.8117 38.2677 54.6812 37.9012 54.6812C37.5293 54.6812 37.2596 54.8149 37.0954 55.0814C36.929 55.35 36.8464 55.8459 36.8464 56.5679ZM52.2015 47.9454L51.3642 45.5573L50.5301 47.9454H52.2015ZM52.6952 49.3819H50.0244L49.6568 50.4781H47.26L50.1103 43.8358H52.6669L55.5183 50.4781H53.0661L52.6952 49.3819ZM44.0009 48.9469V45.4681H42.1935V45.554C42.1935 46.4718 42.0227 47.6028 41.6813 48.948H44.0009V48.9469ZM47.0338 51.5014H45.2221V50.4781H40.5742V51.5014H38.7658V48.9469H39.5161C39.9359 47.8736 40.1479 46.6643 40.1479 45.3191V43.8358H46.2509V48.9469H47.0327V51.5014H47.0338ZM33.348 47.1711C33.348 47.8421 33.4904 48.3238 33.7743 48.6174C34.0581 48.9078 34.4485 49.0557 34.9368 49.0557C35.4392 49.0557 35.8307 48.9132 36.1058 48.625C36.3788 48.339 36.519 47.8214 36.519 47.0797C36.519 46.4534 36.3755 45.9988 36.0884 45.7084C35.7991 45.4203 35.4098 45.2778 34.9161 45.2778C34.442 45.2778 34.0646 45.4246 33.7764 45.716C33.4926 46.0086 33.348 46.4947 33.348 47.1711ZM31.0034 47.1613C31.0034 46.0771 31.3492 45.2343 32.0365 44.6297C32.727 44.025 33.6883 43.7249 34.9194 43.7249C36.1819 43.7249 37.1563 44.0218 37.8382 44.6144C38.52 45.206 38.8625 46.0379 38.8625 47.1069C38.8625 47.8834 38.7136 48.5217 38.4145 49.0187C38.1155 49.5146 37.6859 49.8996 37.1204 50.1769C36.5571 50.4542 35.8557 50.5934 35.0118 50.5934C34.1571 50.5934 33.4491 50.4737 32.8869 50.2356C32.3279 49.9942 31.8744 49.6179 31.5232 49.0992C31.1774 48.5837 31.0034 47.9378 31.0034 47.1613ZM30.9708 45.4681H27.7932V50.4781H25.4529V43.8358H30.9708V45.4681ZM22.0067 37.5165H23.0387C23.4106 37.5165 23.6673 37.461 23.8141 37.3512C23.9565 37.2403 24.0294 37.0793 24.0294 36.8749C24.0294 36.6781 23.9565 36.5269 23.8141 36.4203C23.6662 36.3105 23.415 36.2583 23.055 36.2583H22.0067V37.5165ZM22.0067 40.1243H23.2192C23.6281 40.1243 23.9141 40.0655 24.0816 39.9394C24.2502 39.8132 24.3339 39.6447 24.3339 39.4337C24.3339 39.2369 24.2523 39.0781 24.0838 38.9607C23.9207 38.8399 23.6303 38.7801 23.2116 38.7801H22.0067V40.1243ZM19.611 34.9109H24.0566C24.7993 34.9109 25.3681 35.0708 25.7628 35.3883C26.1609 35.7058 26.3588 36.0973 26.3588 36.5639C26.3588 36.9564 26.2185 37.2936 25.9336 37.5774C25.7433 37.7623 25.4681 37.9102 25.1049 38.0189C25.6563 38.1353 26.0619 38.3321 26.3251 38.6116C26.585 38.89 26.7144 39.2423 26.7144 39.6643C26.7144 40.0101 26.6219 40.3189 26.4371 40.593C26.2511 40.8681 25.9966 41.0878 25.6758 41.2465C25.4779 41.3466 25.1767 41.4194 24.7732 41.4629C24.2393 41.5238 23.8837 41.5565 23.7086 41.5565H19.6099V34.9109H19.611ZM34.9237 34.9109H37.3042V41.5554H34.9237V34.9109ZM29.9126 40.1243H31.1317C31.8766 40.1243 32.2464 39.8948 32.2464 39.4294C32.2464 39.0194 31.8755 38.8171 31.1317 38.8171H29.9126V40.1243ZM29.9126 37.4708H31.0371C32.2018 37.4708 33.0641 37.6481 33.6275 38.0037C34.1886 38.3571 34.4713 38.9095 34.4713 39.6599C34.4713 40.2722 34.2136 40.7398 33.696 41.066C33.1805 41.3912 32.4421 41.5543 31.4775 41.5543H27.543V34.9098H29.9116V37.4708H29.9126ZM40.708 40.1243H41.9227C42.6665 40.1243 43.0417 39.8948 43.0417 39.4294C43.0417 39.0194 42.6665 38.8171 41.9227 38.8171H40.708V40.1243ZM40.708 37.4708H41.9771C43.1385 37.4708 44.002 37.6481 44.5642 38.0037C45.1275 38.3571 45.4091 38.9095 45.4091 39.6599C45.4091 40.2722 45.1514 40.7398 44.637 41.066C44.1194 41.3912 43.3821 41.5543 42.4164 41.5543H38.334V34.9098H44.8078V36.2572H40.708V37.4708ZM48.1996 38.2451C48.1996 38.9172 48.3442 39.3967 48.6292 39.6914C48.9184 39.984 49.3143 40.1308 49.8091 40.1308C50.3191 40.1308 50.7117 39.9861 50.9944 39.7001C51.2728 39.4141 51.4131 38.8976 51.4131 38.1559C51.4131 37.5274 51.2652 37.0739 50.9759 36.7835C50.6834 36.4964 50.2865 36.3518 49.7884 36.3518C49.3088 36.3518 48.9239 36.4986 48.6357 36.7922C48.3442 37.0826 48.1996 37.5698 48.1996 38.2451ZM45.8213 38.2375C45.8213 37.1522 46.1747 36.3083 46.8718 35.7058C47.5721 35.099 48.5432 34.7978 49.7917 34.7978C51.0716 34.7978 52.0601 35.0947 52.7507 35.6895C53.4423 36.2811 53.7892 37.113 53.7892 38.1809C53.7892 38.9596 53.6381 39.5968 53.3357 40.0916C53.0302 40.5875 52.5963 40.9736 52.0242 41.2487C51.4511 41.5249 50.7421 41.6652 49.8895 41.6652C49.0206 41.6652 48.304 41.5456 47.7353 41.3074C47.1687 41.0682 46.7076 40.6908 46.3531 40.1743C45.9996 39.6599 45.8213 39.0118 45.8213 38.2375ZM56.8374 37.7416H57.4214C57.8792 37.7416 58.1978 37.6742 58.386 37.5372C58.5708 37.399 58.6633 37.2229 58.6633 37.0108C58.6633 36.8009 58.5817 36.6237 58.4219 36.4801C58.262 36.3355 57.9597 36.2626 57.516 36.2626H56.8374V37.7416ZM54.4493 34.9109H58.3979C59.2559 34.9109 59.8997 35.0892 60.3293 35.4416C60.7588 35.7939 60.972 36.2996 60.972 36.9488C60.972 37.622 60.7393 38.144 60.2727 38.5213C59.8062 38.8998 59.0917 39.0879 58.1348 39.0879H56.8374V41.5543H54.4504V34.9109H54.4493ZM34.4496 32.4804H32.1822L29.5288 29.4964V32.4804H27.0276V25.5891H29.2678L31.9256 28.6471V25.5891H34.4496V32.4804ZM37.4021 28.6123C37.6033 28.6123 37.7522 28.5514 37.8468 28.4317C37.9447 28.311 37.9926 28.1131 37.9926 27.8401C37.9926 27.5715 37.9469 27.3758 37.8555 27.2616C37.7609 27.142 37.6185 27.0822 37.4184 27.0822C37.2096 27.0822 37.0573 27.142 36.9595 27.2616C36.8638 27.3758 36.8148 27.5748 36.8148 27.8554C36.8148 28.36 37.0106 28.6123 37.4021 28.6123ZM37.3901 26.2035C38.0556 26.2035 38.5657 26.3601 38.9169 26.6722C39.2682 26.9854 39.4422 27.3704 39.4422 27.8336C39.4422 28.2958 39.2693 28.6884 38.9213 29.007C38.5755 29.3267 38.0644 29.4866 37.3912 29.4866C36.7452 29.4866 36.2439 29.3289 35.8883 29.0114C35.5349 28.6927 35.3565 28.3089 35.3565 27.8554C35.3565 27.3867 35.5371 26.993 35.8948 26.6766C36.2494 26.3612 36.7496 26.2035 37.3901 26.2035ZM39.3878 30.9829H35.3424V29.9868H39.3878V30.9829ZM46.5793 32.5489H40.1991V21.436C39.4074 21.448 38.4917 21.4469 37.4488 21.4338C37.4325 20.6791 37.4467 19.8962 37.4412 19.1436C38.7462 19.2458 39.9283 18.9805 40.8211 18.3487C41.1158 18.1388 41.3855 17.5842 41.641 17.1503L46.5782 17.1307V32.5489H46.5793ZM56.1023 4.1691L57.814 9.41616L63.3351 9.37158L58.821 12.6046L60.5718 17.7843L56.0675 14.536L51.6306 17.7843L53.3618 12.5427L48.8651 9.37158L54.4406 9.37919L56.1023 4.1691ZM66.4224 57.1845L62.9686 59.6749L64.6879 54.4713L60.2075 51.2611L65.7384 51.2687L67.4414 46.0619L69.1422 51.2709L74.6742 51.2632L70.1938 54.4735L71.912 59.677L67.4414 56.4505L67.027 56.7496L66.4224 57.1845ZM12.0302 56.7496L11.6148 56.4505L7.1442 59.6749L8.8624 54.4713L4.38201 51.2611L9.91291 51.2687L11.6126 46.0597L13.3156 51.2676L18.8465 51.26L14.365 54.4702L16.0843 59.6738L12.6305 57.1835L12.0302 56.7496ZM23.104 57.6685L21.4206 62.9003L15.8712 62.8666L20.3809 66.0692L18.6334 71.2804L23.104 68.0267L27.5757 71.2804L25.8281 66.0692L30.3378 62.8666L24.7885 62.9003L23.104 57.6685ZM8.19144 31.344L6.49389 36.5552L0.958649 36.5432L5.44448 39.7523L3.72084 44.9559L8.19144 41.7272L12.6642 44.9559L10.9417 39.7523L15.4253 36.5432L9.89116 36.5552L8.19144 31.344ZM22.955 4.1691L21.2433 9.41616L15.7222 9.37158L20.2363 12.6046L18.4855 17.7843L22.9898 14.536L27.4267 17.7843L25.6954 12.5427L30.1921 9.37158L24.6177 9.37919L22.955 4.1691ZM39.5324 0.472778L37.8023 5.64481L32.2975 5.67308L36.7344 8.89961L35.0597 14.0869L39.5324 10.9093L44.0019 14.0869L42.3283 8.89961L46.7641 5.67308L41.2593 5.64481L39.5324 0.472778ZM55.9533 57.6685L57.6367 62.9003L63.1861 62.8666L58.6763 66.0692L60.425 71.2804L55.9533 68.0267L51.4816 71.2804L53.2292 66.0692L48.7194 62.8666L54.271 62.9003L55.9533 57.6685ZM70.8658 31.344L72.5634 36.5552L78.0986 36.5432L73.6128 39.7523L75.3353 44.9559L70.8647 41.7272L66.392 44.9559L68.1145 39.7523L63.6309 36.5432L69.1639 36.5552L70.8658 31.344ZM66.7236 16.3412L64.9935 21.5132L59.4887 21.5415L63.9256 24.768L62.2509 29.9553L66.7236 26.7777L71.1932 29.9553L69.5195 24.768L73.9564 21.5415L68.4516 21.5132L66.7236 16.3412ZM12.3456 16.3423L10.6154 21.5132L5.11062 21.5415L9.54752 24.768L7.8728 29.9553L12.3456 26.7777L16.8151 29.9553L15.1415 24.768L19.5784 21.5415L14.0736 21.5132L12.3456 16.3423ZM39.5324 63.6191L37.7827 68.7651L32.2975 68.8205L36.7017 72.0536L35.0597 77.2343L39.5324 74.0893L44.0019 77.2343L42.3599 72.0536L46.7641 68.8205L41.2789 68.7651L39.5324 63.6191Z" fill="url(#paint0_linear_1_72)"/>
<defs>
<linearGradient id="paint0_linear_1_72" x1="0.958279" y1="38.8533" x2="78.0986" y2="38.8533" gradientUnits="userSpaceOnUse">
<stop stop-color="#D6B36A"/>
<stop offset="1" stop-color="#FDF4D0"/>
</linearGradient>
</defs>
</svg>
