<svg width="36" height="35" viewBox="0 0 36 35" fill="none" xmlns="http://www.w3.org/2000/svg">
<path fill-rule="evenodd" clip-rule="evenodd" d="M25.5 5.10417C25.5 4.70167 25.1625 4.375 24.75 4.375H21C16.857 4.375 13.5 7.31354 13.5 10.9375V14.875H9.75C9.336 14.875 9 15.2017 9 15.6042V19.3958C9 19.7983 9.336 20.125 9.75 20.125H13.5V29.8958C13.5 30.2983 13.836 30.625 14.25 30.625H18.75C19.1625 30.625 19.5 30.2983 19.5 29.8958V20.125H23.4285C23.766 20.125 24.0615 19.9062 24.153 19.5913L25.2345 15.7996C25.368 15.3358 25.008 14.875 24.513 14.875H19.5V10.9375C19.5 10.2127 20.1705 9.625 21 9.625H24.75C25.1625 9.625 25.5 9.29833 25.5 8.89583V5.10417Z" fill="white"/>
</svg>
