<svg width="36" height="35" viewBox="0 0 36 35" fill="none" xmlns="http://www.w3.org/2000/svg">
<path fill-rule="evenodd" clip-rule="evenodd" d="M21.7657 5.83334C23.9568 5.83334 26.0222 6.66825 27.5817 8.18444C29.141 9.70045 30 11.7087 30 13.8389V21.161C30 23.2913 29.141 25.2996 27.5817 26.8156C26.0224 28.3318 23.9568 29.1667 21.7657 29.1667H14.2343C12.0432 29.1667 9.9776 28.3318 8.41827 26.8156C6.85876 25.2996 6 23.2913 6 21.161V13.8389C6 11.7087 6.85876 9.70045 8.41827 8.18444C9.9776 6.66825 12.0432 5.83334 14.2343 5.83334H21.7657ZM11.6484 17.5C11.6484 20.905 14.4977 23.6751 18 23.6751C21.5023 23.6751 24.3516 20.905 24.3516 17.5C24.3516 14.095 21.5023 11.3249 18 11.3249C14.4977 11.3249 11.6484 14.095 11.6484 17.5ZM24.5392 11.826C24.7242 11.826 24.9056 11.753 25.0364 11.6259C25.1673 11.4986 25.2424 11.3222 25.2424 11.1424C25.2424 10.9624 25.1673 10.786 25.0364 10.6589C24.9056 10.5316 24.7242 10.4588 24.5392 10.4588C24.3539 10.4588 24.173 10.5316 24.0423 10.6589C23.911 10.786 23.8361 10.9624 23.8361 11.1424C23.8361 11.3224 23.911 11.4986 24.0423 11.6259C24.173 11.753 24.3541 11.826 24.5392 11.826ZM15 17.5C15 15.8918 16.3458 14.5833 18 14.5833C19.6543 14.5833 21 15.8918 21 17.5C21 19.1082 19.6542 20.4167 18 20.4167C16.3458 20.4167 15 19.1082 15 17.5Z" fill="white"/>
</svg>
