<svg width="35" height="35" viewBox="0 0 35 35" fill="none" xmlns="http://www.w3.org/2000/svg">
<path d="M27.5924 22.9381C27.5659 22.881 27.5412 22.8337 27.5183 22.7957C27.1388 22.1122 26.4135 21.2732 25.3429 20.2785L25.3203 20.2557L25.309 20.2445L25.2975 20.2331H25.286C24.8001 19.7699 24.4925 19.4584 24.3636 19.299C24.1278 18.9953 24.075 18.6878 24.2039 18.3763C24.2949 18.1409 24.6369 17.6439 25.2289 16.8845C25.5404 16.482 25.787 16.1594 25.9692 15.9164C27.2829 14.1699 27.8524 13.0539 27.6777 12.5679L27.6098 12.4544C27.5642 12.386 27.4465 12.3234 27.2569 12.2664C27.0669 12.2095 26.824 12.2 26.5278 12.238L23.2477 12.2606C23.1946 12.2418 23.1187 12.2436 23.0198 12.2664C22.9211 12.2892 22.8717 12.3007 22.8717 12.3007L22.8146 12.3292L22.7693 12.3634C22.7314 12.3861 22.6896 12.426 22.644 12.4829C22.5986 12.5397 22.5607 12.6063 22.5304 12.6822C22.1733 13.601 21.7672 14.4552 21.3116 15.2448C21.0306 15.7156 20.7726 16.1237 20.5369 16.4692C20.3016 16.8146 20.1042 17.069 19.9449 17.2322C19.7853 17.3954 19.6413 17.5262 19.512 17.6251C19.3828 17.7239 19.2843 17.7657 19.216 17.7504C19.1476 17.7351 19.0832 17.72 19.0222 17.7048C18.9159 17.6364 18.8305 17.5434 18.7661 17.4258C18.7014 17.3081 18.6578 17.16 18.635 16.9815C18.6124 16.803 18.599 16.6494 18.5951 16.5202C18.5916 16.3913 18.5932 16.2089 18.6009 15.9735C18.6088 15.738 18.6124 15.5787 18.6124 15.4951C18.6124 15.2066 18.618 14.8934 18.6293 14.5555C18.6408 14.2176 18.6501 13.9499 18.6578 13.7527C18.6656 13.5552 18.6692 13.3464 18.6692 13.1262C18.6692 12.906 18.6558 12.7333 18.6293 12.6079C18.6031 12.4828 18.5629 12.3612 18.51 12.2434C18.4567 12.1258 18.3788 12.0347 18.2765 11.9701C18.174 11.9056 18.0466 11.8543 17.895 11.8163C17.4925 11.7252 16.98 11.6759 16.3573 11.6683C14.9451 11.6531 14.0376 11.7443 13.6352 11.9417C13.4758 12.0252 13.3315 12.1391 13.2025 12.2833C13.0658 12.4504 13.0467 12.5416 13.1454 12.5566C13.601 12.6249 13.9236 12.7881 14.1134 13.0463L14.1819 13.1831C14.2351 13.2817 14.2882 13.4565 14.3414 13.707C14.3945 13.9575 14.4287 14.2346 14.4438 14.5382C14.4817 15.0926 14.4817 15.5672 14.4438 15.9619C14.4058 16.3569 14.3699 16.6643 14.3356 16.8845C14.3014 17.1047 14.2502 17.2831 14.1819 17.4198C14.1134 17.5564 14.0679 17.64 14.0451 17.6703C14.0223 17.7006 14.0033 17.7197 13.9883 17.7272C13.8896 17.765 13.7869 17.7843 13.6807 17.7843C13.5743 17.7843 13.4453 17.7311 13.2935 17.6247C13.1417 17.5184 12.9841 17.3723 12.8209 17.1862C12.6576 17.0001 12.4734 16.7401 12.2684 16.406C12.0634 16.072 11.8508 15.6772 11.6306 15.2216L11.4484 14.8912C11.3345 14.6787 11.179 14.3692 10.9815 13.9631C10.784 13.5568 10.6094 13.1637 10.4576 12.7841C10.3969 12.6247 10.3058 12.5033 10.1843 12.4197L10.1273 12.3855C10.0894 12.3551 10.0286 12.3229 9.9451 12.2886C9.86153 12.2544 9.77433 12.2298 9.68313 12.2147L6.56244 12.2373C6.24354 12.2373 6.02717 12.3096 5.91324 12.4539L5.86764 12.5221C5.84486 12.5601 5.83337 12.6209 5.83337 12.7044C5.83337 12.788 5.85615 12.8905 5.90175 13.0119C6.35731 14.0826 6.85273 15.1152 7.388 16.1098C7.92327 17.1045 8.38841 17.9057 8.78314 18.5128C9.17794 19.1203 9.58037 19.6937 9.99042 20.2326C10.4005 20.7718 10.6719 21.1173 10.8047 21.2691C10.9377 21.4211 11.0421 21.5348 11.118 21.6107L11.4028 21.884C11.585 22.0663 11.8526 22.2846 12.2057 22.5389C12.5589 22.7934 12.9498 23.0439 13.3788 23.2908C13.8079 23.5374 14.3071 23.7386 14.8766 23.8943C15.4461 24.05 16.0003 24.1125 16.5395 24.0824H17.8493C18.1149 24.0594 18.3162 23.9759 18.453 23.8317L18.4983 23.7747C18.5287 23.7293 18.5573 23.6589 18.5836 23.5642C18.6102 23.4693 18.6235 23.3647 18.6235 23.251C18.6157 22.9246 18.6406 22.6304 18.6974 22.3684C18.7541 22.1066 18.8188 21.9092 18.8912 21.7762C18.9635 21.6434 19.0451 21.5313 19.136 21.4404C19.227 21.3493 19.2919 21.2941 19.3299 21.2752C19.3678 21.256 19.398 21.2431 19.4207 21.2353C19.603 21.1746 19.8174 21.2334 20.0644 21.412C20.3112 21.5904 20.5427 21.8107 20.7593 22.0726C20.9757 22.3347 21.2357 22.6287 21.5393 22.9552C21.8432 23.2817 22.1089 23.5245 22.3366 23.6841L22.5643 23.8208C22.7164 23.912 22.9138 23.9955 23.1568 24.0715C23.3994 24.1473 23.6119 24.1663 23.7944 24.1284L26.71 24.0829C26.9984 24.0829 27.2228 24.0352 27.3819 23.9404C27.5414 23.8455 27.6362 23.7409 27.6667 23.6272C27.6972 23.5134 27.6988 23.3842 27.6725 23.2398C27.6455 23.0957 27.6189 22.995 27.5924 22.9381Z" fill="white"/>
</svg>
