<svg width="199" height="160" viewBox="0 0 199 160" fill="none" xmlns="http://www.w3.org/2000/svg">
<path d="M4.43616 151.082L2.84834 157H4.84858L5.79714 153.474L6.68384 157H8.74594L7.15813 151.041L8.56035 145.906H6.60136L5.859 149.205L5.03416 145.906H2.9102L4.43616 151.082ZM10.4415 145.246V157H12.7923V141.658H10.9158C10.689 142.875 10.2559 143.266 8.87434 143.349V145.246H10.4415ZM15.816 154.361H13.6508V157H15.816V154.361ZM19.5451 154.979C19.0914 154.979 18.8646 154.649 18.8646 154.01V150.236C18.8646 149.638 19.0914 149.329 19.5451 149.329C19.9987 149.329 20.2256 149.638 20.2256 150.278V154.01C20.2256 154.649 19.9987 154.979 19.5451 154.979ZM20.8442 147.205C19.8956 147.205 19.2357 147.989 18.8439 148.587V144.442C18.8439 144.091 18.9264 143.699 19.4007 143.699C19.875 143.699 19.9575 144.091 19.9575 144.442V146.195H22.3289V143.926C22.3289 142.524 21.5247 141.514 19.6069 141.514H19.1945C17.2149 141.514 16.4725 142.648 16.4725 144.524V154.216C16.4725 155.804 17.2768 157.186 19.3389 157.186H19.7719C21.834 157.186 22.6176 155.763 22.6176 154.113V149.02C22.6176 148.257 22.2052 147.205 20.9267 147.205H20.8442ZM25.0108 151.494C25.9593 151.494 26.6604 150.628 26.9904 150.133V154.237C26.9904 154.629 26.9079 155.02 26.4748 155.02C25.9799 155.02 25.8975 154.629 25.8975 154.237V152.505H23.4848V154.525C23.4848 156.093 24.1653 157.186 26.1655 157.186H26.6811C28.5163 157.186 29.3618 156.072 29.3618 154.505V144.401C29.3618 142.772 28.6813 141.514 26.5367 141.514H26.0624C23.9385 141.514 23.2167 142.813 23.2167 144.401V149.35C23.2167 150.339 23.8354 151.494 24.9489 151.494H25.0108ZM26.2893 143.72C26.8873 143.72 26.9904 144.174 26.9904 144.669V148.442C26.9904 149.02 26.8048 149.37 26.2893 149.37C25.8356 149.37 25.6088 149.04 25.6088 148.401V144.669C25.6088 144.236 25.6912 143.72 26.2893 143.72Z" fill="white"/>
<path d="M52.1912 151.082L50.6033 157H52.6036L53.5521 153.474L54.4388 157H56.5009L54.9131 151.041L56.3154 145.906H54.3564L53.614 149.205L52.7892 145.906H50.6652L52.1912 151.082ZM58.1965 145.246V157H60.5473V141.658H58.6708C58.444 142.875 58.011 143.266 56.6293 143.349V145.246H58.1965ZM63.571 154.361H61.4058V157H63.571V154.361ZM67.3001 154.979C66.8464 154.979 66.6196 154.649 66.6196 154.01V150.236C66.6196 149.638 66.8464 149.329 67.3001 149.329C67.7537 149.329 67.9806 149.638 67.9806 150.278V154.01C67.9806 154.649 67.7537 154.979 67.3001 154.979ZM68.5992 147.205C67.6506 147.205 66.9908 147.989 66.599 148.587V144.442C66.599 144.091 66.6814 143.699 67.1557 143.699C67.63 143.699 67.7125 144.091 67.7125 144.442V146.195H70.0839V143.926C70.0839 142.524 69.2797 141.514 67.3619 141.514H66.9495C64.9699 141.514 64.2275 142.648 64.2275 144.524V154.216C64.2275 155.804 65.0318 157.186 67.0939 157.186H67.5269C69.589 157.186 70.3726 155.763 70.3726 154.113V149.02C70.3726 148.257 69.9602 147.205 68.6817 147.205H68.5992ZM72.7658 151.494C73.7143 151.494 74.4154 150.628 74.7454 150.133V154.237C74.7454 154.629 74.6629 155.02 74.2298 155.02C73.7349 155.02 73.6525 154.629 73.6525 154.237V152.505H71.2398V154.525C71.2398 156.093 71.9203 157.186 73.9205 157.186H74.4361C76.2713 157.186 77.1168 156.072 77.1168 154.505V144.401C77.1168 142.772 76.4363 141.514 74.2917 141.514H73.8174C71.6935 141.514 70.9717 142.813 70.9717 144.401V149.35C70.9717 150.339 71.5904 151.494 72.7039 151.494H72.7658ZM74.0443 143.72C74.6423 143.72 74.7454 144.174 74.7454 144.669V148.442C74.7454 149.02 74.5598 149.37 74.0443 149.37C73.5906 149.37 73.3638 149.04 73.3638 148.401V144.669C73.3638 144.236 73.4463 143.72 74.0443 143.72Z" fill="#F8FF13"/>
<path d="M99.9463 151.082L98.3585 157H100.359L101.307 153.474L102.194 157H104.256L102.668 151.041L104.07 145.906H102.111L101.369 149.205L100.544 145.906H98.4203L99.9463 151.082ZM105.952 145.246V157H108.302V141.658H106.426C106.199 142.875 105.766 143.266 104.384 143.349V145.246H105.952ZM111.326 154.361H109.161V157H111.326V154.361ZM115.055 154.979C114.602 154.979 114.375 154.649 114.375 154.01V150.236C114.375 149.638 114.602 149.329 115.055 149.329C115.509 149.329 115.736 149.638 115.736 150.278V154.01C115.736 154.649 115.509 154.979 115.055 154.979ZM116.354 147.205C115.406 147.205 114.746 147.989 114.354 148.587V144.442C114.354 144.091 114.437 143.699 114.911 143.699C115.385 143.699 115.468 144.091 115.468 144.442V146.195H117.839V143.926C117.839 142.524 117.035 141.514 115.117 141.514H114.705C112.725 141.514 111.983 142.648 111.983 144.524V154.216C111.983 155.804 112.787 157.186 114.849 157.186H115.282C117.344 157.186 118.128 155.763 118.128 154.113V149.02C118.128 148.257 117.715 147.205 116.437 147.205H116.354ZM120.521 151.494C121.469 151.494 122.171 150.628 122.5 150.133V154.237C122.5 154.629 122.418 155.02 121.985 155.02C121.49 155.02 121.408 154.629 121.408 154.237V152.505H118.995V154.525C118.995 156.093 119.675 157.186 121.676 157.186H122.191C124.026 157.186 124.872 156.072 124.872 154.505V144.401C124.872 142.772 124.191 141.514 122.047 141.514H121.573C119.449 141.514 118.727 142.813 118.727 144.401V149.35C118.727 150.339 119.345 151.494 120.459 151.494H120.521ZM121.799 143.72C122.397 143.72 122.5 144.174 122.5 144.669V148.442C122.5 149.02 122.315 149.37 121.799 149.37C121.346 149.37 121.119 149.04 121.119 148.401V144.669C121.119 144.236 121.201 143.72 121.799 143.72Z" fill="white"/>
<path d="M11.467 34.5701V38.5357H11.2894C3.9501 38.5357 0.93152 41.5543 0.93152 48.8936V63.7497C0.93152 70.9114 4.00929 74.1076 11.3486 74.1076H11.467V79.7896H18.1552V74.1076H18.2736C25.6721 74.1076 28.6906 70.9706 28.6906 63.8089V48.8936C28.6906 41.6134 25.6721 38.5357 18.3328 38.5357H18.1552V34.5701H11.467ZM11.467 44.3953V68.248H11.2894C8.27082 68.248 7.73813 66.2948 7.73813 62.5068V48.9527C7.73813 46.2893 8.33001 44.3953 11.2894 44.3953H11.467ZM18.1552 44.3953H18.3919C21.2922 44.3953 21.884 46.2893 21.884 48.9527V62.5068C21.884 66.2948 21.4105 68.248 18.3919 68.248H18.1552V44.3953ZM42.3052 79.1978H48.9935V35.162H42.3052L37.511 59.0147V35.162H30.8228V79.1978H37.511L42.3052 55.345V79.1978ZM58.1459 59.8433H62.7033V79.1978H69.3916V35.162H62.7033V52.8H58.1459V35.162H51.4576V79.1978H58.1459V59.8433ZM84.054 79.1978H90.7422V35.162H73.8737C73.8737 58.3044 73.9329 64.9335 73.4594 69.4318C73.2818 71.5033 72.9858 72.3911 71.3878 72.3911H70.9143V79.1978H72.5715C77.5433 79.1978 79.2598 76.7711 79.5557 72.2728C80.0884 65.8805 80.1476 55.8185 80.1476 41.5543H84.054V79.1978ZM103.901 60.7311V79.1978H110.59V35.162H99.7582C95.2599 35.162 93.0108 36.9968 93.0108 41.9686V54.2205C93.0108 57.0023 94.2537 58.7779 96.6804 59.5474L91.3535 79.1978H98.2193L103.132 60.7311H103.901ZM103.901 54.3388H102.126C100.291 54.3388 99.699 53.1551 99.699 51.2019V43.981C99.699 42.0869 100.054 41.1399 102.126 41.1399H103.901V54.3388ZM119.761 59.8433H124.319V79.1978H131.007V35.162H124.319V52.8H119.761V35.162H113.073V79.1978H119.761V59.8433ZM150.227 85.4125H156.323V72.5095H153.364V35.162H136.555C136.555 53.1551 136.436 61.7965 135.667 66.9459C135.252 69.3726 134.72 71.0298 134.009 72.5095H132.53V85.4125H138.626V79.1978H150.227V85.4125ZM141.941 67.1234C142.592 62.5068 142.828 55.1675 142.828 41.5543H146.676V72.5095H140.639C141.171 71.089 141.645 69.4318 141.941 67.1234ZM169.351 79.1978H176.039V35.162H169.351L164.557 59.0147V35.162H157.869V79.1978H164.557L169.351 55.345V79.1978ZM189.157 60.7311V79.1978H195.846V35.162H185.014C180.516 35.162 178.267 36.9968 178.267 41.9686V54.2205C178.267 57.0023 179.51 58.7779 181.936 59.5474L176.61 79.1978H183.475L188.388 60.7311H189.157ZM189.157 54.3388H187.382C185.547 54.3388 184.955 53.1551 184.955 51.2019V43.981C184.955 42.0869 185.31 41.1399 187.382 41.1399H189.157V54.3388Z" fill="white"/>
<path d="M45.3111 120.264C45.3111 122.098 44.7192 123.223 43.1211 123.223C41.7006 123.223 40.9904 122.217 40.9904 120.204V94.0434C40.9904 92.0902 41.4047 91.1432 43.0619 91.1432C44.7192 91.1432 45.3111 92.1494 45.3111 94.0434V101.797H51.8809V93.925C51.8809 89.6043 51.0523 84.7509 43.713 84.7509H42.1741C36.137 84.7509 34.1838 89.0716 34.1838 93.5699V120.441C34.1838 124.88 35.6043 129.734 42.4109 129.734H43.8906C50.2829 129.734 51.8809 124.939 51.8809 120.204V110.024H45.3111V120.264ZM53.8952 129.201H81.5359V85.1652H74.8477V122.513H71.0597V85.1652H64.3714V122.513H60.5834V85.1652H53.8952V129.201ZM95.3142 129.201H101.766L96.0245 85.1652H88.0933L82.7072 129.201H88.6852L89.5138 120.915H94.4264L95.3142 129.201ZM91.9405 98.0682L93.7161 114.345H90.2241L91.9405 98.0682Z" fill="white"/>
<rect x="1" y="104.001" width="26.2274" height="26.2274" fill="#F8FF13"/>
<path d="M6.95336 132H11.0362L13.8376 109.828H10.6488L9.09908 125.086L7.57919 109.828H4.15199L6.95336 132ZM18.6103 109.619C15.9579 109.619 14.4678 110.96 14.4678 113.94V114.655C14.4678 116.861 14.885 118.291 16.3155 120.139L18.4612 122.881C19.6831 124.49 19.8321 124.997 19.8321 126.606V127.113C19.8321 128.513 19.5341 129.02 18.7295 129.02C17.9844 129.02 17.6268 128.513 17.6268 127.47V123.596H14.289V128.036C14.289 130.778 15.6897 132.238 18.4016 132.238H19.0573C22.0375 132.238 23.4083 130.301 23.4083 127.053V126.338C23.4083 123.805 22.9315 122.702 21.4116 120.735L19.2659 117.963C18.1334 116.503 17.895 115.818 17.895 114.566V114.149C17.895 113.106 18.0738 112.599 18.8785 112.599C19.6831 112.599 19.8321 113.165 19.8321 113.91V117.099H23.0805V113.463C23.0805 110.841 22.0077 109.619 19.2361 109.619H18.6103Z" fill="black"/>
<path d="M54.3236 9.50193V24.0001H57.2232V5.07616H54.9086C54.6288 6.57685 54.0947 7.06013 52.3905 7.16187V9.50193H54.3236ZM62.1992 21.5074C61.6397 21.5074 61.3599 21.1005 61.3599 20.312V15.6573C61.3599 14.9197 61.6397 14.5381 62.1992 14.5381C62.7588 14.5381 63.0386 14.9197 63.0386 15.7082V20.312C63.0386 21.1005 62.7588 21.5074 62.1992 21.5074ZM63.8017 11.9183C62.6316 11.9183 61.8177 12.8848 61.3344 13.6225V8.50995C61.3344 8.07754 61.4362 7.59427 62.0212 7.59427C62.6062 7.59427 62.7079 8.07754 62.7079 8.50995V10.672H65.633V7.87406C65.633 6.14445 64.641 4.89811 62.2755 4.89811H61.7668C59.325 4.89811 58.4094 6.29706 58.4094 8.61169V20.5663C58.4094 22.5249 59.4013 24.229 61.9449 24.229H62.479C65.0226 24.229 65.9891 22.474 65.9891 20.4392V14.1566C65.9891 13.2155 65.4804 11.9183 63.9034 11.9183H63.8017ZM69.4976 20.7444H66.8269V24.0001H69.4976V20.7444ZM77.9126 9.1967C77.9126 6.65316 77.1241 4.89811 74.4279 4.89811H73.8938C71.2739 4.89811 70.3074 6.50055 70.3074 9.24757V20.2865C70.3074 22.9064 71.5028 24.229 73.7412 24.229H74.377C76.6917 24.229 77.9126 22.5503 77.9126 20.2865V9.1967ZM74.9875 20.0831C74.9875 20.8207 74.8094 21.3548 74.0718 21.3548C73.3342 21.3548 73.2324 20.7698 73.2324 20.0831V9.09496C73.2324 8.15385 73.4105 7.69601 74.0973 7.69601C74.784 7.69601 74.9875 8.10298 74.9875 9.09496V20.0831ZM81.9268 15.5301V14.3855C81.9268 13.8514 81.9777 13.2664 82.6136 13.2664C83.2494 13.2664 83.2749 13.8514 83.2749 14.3855V20.4137C83.2749 21.0242 83.0968 21.5074 82.5627 21.5074C81.9522 21.5074 81.7996 21.0496 81.7996 20.4137V17.0817H78.8491V20.9733C78.8491 22.3214 79.4341 24.229 82.3592 24.229H82.8933C85.386 24.229 86.3526 22.4486 86.3526 20.6681V12.5542C86.3526 11.435 85.8439 10.3159 84.3432 10.3159H84.2414C83.1986 10.3159 82.4101 11.1807 81.9268 12.1726V7.92493H86.1745V5.07616H79.1035V15.5301H81.9268Z" fill="white"/>
<path d="M11.467 34.5701V33.5701H10.467V34.5701H11.467ZM11.467 38.5357V39.5357H12.467V38.5357H11.467ZM11.467 74.1076H12.467V73.1076H11.467V74.1076ZM11.467 79.7896H10.467V80.7896H11.467V79.7896ZM18.1552 79.7896V80.7896H19.1552V79.7896H18.1552ZM18.1552 74.1076V73.1076H17.1552V74.1076H18.1552ZM18.1552 38.5357H17.1552V39.5357H18.1552V38.5357ZM18.1552 34.5701H19.1552V33.5701H18.1552V34.5701ZM11.467 44.3953H12.467V43.3953H11.467V44.3953ZM11.467 68.248V69.248H12.467V68.248H11.467ZM18.1552 44.3953V43.3953H17.1552V44.3953H18.1552ZM18.1552 68.248H17.1552V69.248H18.1552V68.248ZM10.467 34.5701V38.5357H12.467V34.5701H10.467ZM11.467 37.5357H11.2894V39.5357H11.467V37.5357ZM11.2894 37.5357C7.51433 37.5357 4.59955 38.3068 2.65112 40.2553C0.702683 42.2037 -0.0684804 45.1185 -0.0684804 48.8936H1.93152C1.93152 45.3293 2.66965 43.0652 4.06533 41.6695C5.46101 40.2738 7.72518 39.5357 11.2894 39.5357V37.5357ZM-0.0684804 48.8936V63.7497H1.93152V48.8936H-0.0684804ZM-0.0684804 63.7497C-0.0684804 67.4472 0.722394 70.3545 2.67916 72.3199C4.63667 74.286 7.55979 75.1076 11.3486 75.1076V73.1076C7.79809 73.1076 5.51268 72.3312 4.09647 70.9087C2.67953 69.4856 1.93152 67.214 1.93152 63.7497H-0.0684804ZM11.3486 75.1076H11.467V73.1076H11.3486V75.1076ZM10.467 74.1076V79.7896H12.467V74.1076H10.467ZM11.467 80.7896H18.1552V78.7896H11.467V80.7896ZM19.1552 79.7896V74.1076H17.1552V79.7896H19.1552ZM18.1552 75.1076H18.2736V73.1076H18.1552V75.1076ZM18.2736 75.1076C22.0854 75.1076 25.0109 74.3037 26.9636 72.351C28.9167 70.398 29.6906 67.5016 29.6906 63.8089H27.6906C27.6906 67.278 26.9553 69.5309 25.5494 70.9368C24.1432 72.343 21.8603 73.1076 18.2736 73.1076V75.1076ZM29.6906 63.8089V48.8936H27.6906V63.8089H29.6906ZM29.6906 48.8936C29.6906 45.1458 28.9185 42.2335 26.9726 40.279C25.0258 38.3236 22.1123 37.5357 18.3328 37.5357V39.5357C21.8925 39.5357 24.158 40.2866 25.5553 41.6901C26.9535 43.0945 27.6906 45.3612 27.6906 48.8936H29.6906ZM18.3328 37.5357H18.1552V39.5357H18.3328V37.5357ZM19.1552 38.5357V34.5701H17.1552V38.5357H19.1552ZM18.1552 33.5701H11.467V35.5701H18.1552V33.5701ZM10.467 44.3953V68.248H12.467V44.3953H10.467ZM11.467 67.248H11.2894V69.248H11.467V67.248ZM11.2894 67.248C10.6361 67.248 10.2064 67.1414 9.91589 66.993C9.64195 66.8531 9.43397 66.6473 9.26509 66.3291C8.886 65.6148 8.73813 64.4198 8.73813 62.5068H6.73813C6.73813 64.3817 6.8566 66.0573 7.4985 67.2667C7.84012 67.9103 8.33129 68.4295 9.00622 68.7742C9.66455 69.1104 10.4334 69.248 11.2894 69.248V67.248ZM8.73813 62.5068V48.9527H6.73813V62.5068H8.73813ZM8.73813 48.9527C8.73813 47.6442 8.89481 46.7615 9.24542 46.2156C9.52925 45.7736 10.0457 45.3953 11.2894 45.3953V43.3953C9.57374 43.3953 8.31453 43.9639 7.56256 45.1348C6.87739 46.2018 6.73813 47.5978 6.73813 48.9527H8.73813ZM11.2894 45.3953H11.467V43.3953H11.2894V45.3953ZM18.1552 45.3953H18.3919V43.3953H18.1552V45.3953ZM18.3919 45.3953C19.5978 45.3953 20.1006 45.7677 20.3806 46.2101C20.7277 46.7584 20.884 47.6449 20.884 48.9527H22.884C22.884 47.5971 22.7444 46.2049 22.0705 45.1403C21.3295 43.9698 20.0863 43.3953 18.3919 43.3953V45.3953ZM20.884 48.9527V62.5068H22.884V48.9527H20.884ZM20.884 62.5068C20.884 64.4276 20.7502 65.6236 20.3811 66.3398C20.2178 66.6565 20.017 66.8583 19.752 66.9952C19.4694 67.1412 19.0457 67.248 18.3919 67.248V69.248C19.2474 69.248 20.0149 69.1106 20.6701 68.772C21.3429 68.4244 21.8264 67.9011 22.1589 67.256C22.7811 66.0486 22.884 64.3739 22.884 62.5068H20.884ZM18.3919 67.248H18.1552V69.248H18.3919V67.248ZM19.1552 68.248V44.3953H17.1552V68.248H19.1552ZM42.3052 79.1978H41.3052V80.1978H42.3052V79.1978ZM48.9935 79.1978V80.1978H49.9935V79.1978H48.9935ZM48.9935 35.162H49.9935V34.162H48.9935V35.162ZM42.3052 35.162V34.162H41.4862L41.3249 34.9649L42.3052 35.162ZM37.511 59.0147H36.511L38.4914 59.2117L37.511 59.0147ZM37.511 35.162H38.511V34.162H37.511V35.162ZM30.8228 35.162V34.162H29.8228V35.162H30.8228ZM30.8228 79.1978H29.8228V80.1978H30.8228V79.1978ZM37.511 79.1978V80.1978H38.33L38.4914 79.3948L37.511 79.1978ZM42.3052 55.345H43.3052L41.3249 55.148L42.3052 55.345ZM42.3052 80.1978H48.9935V78.1978H42.3052V80.1978ZM49.9935 79.1978V35.162H47.9935V79.1978H49.9935ZM48.9935 34.162H42.3052V36.162H48.9935V34.162ZM41.3249 34.9649L36.5306 58.8176L38.4914 59.2117L43.2856 35.359L41.3249 34.9649ZM38.511 59.0147V35.162H36.511V59.0147H38.511ZM37.511 34.162H30.8228V36.162H37.511V34.162ZM29.8228 35.162V79.1978H31.8228V35.162H29.8228ZM30.8228 80.1978H37.511V78.1978H30.8228V80.1978ZM38.4914 79.3948L43.2856 55.5421L41.3249 55.148L36.5306 79.0007L38.4914 79.3948ZM41.3052 55.345V79.1978H43.3052V55.345H41.3052ZM58.1459 59.8433V58.8433H57.1459V59.8433H58.1459ZM62.7033 59.8433H63.7033V58.8433H62.7033V59.8433ZM62.7033 79.1978H61.7033V80.1978H62.7033V79.1978ZM69.3916 79.1978V80.1978H70.3916V79.1978H69.3916ZM69.3916 35.162H70.3916V34.162H69.3916V35.162ZM62.7033 35.162V34.162H61.7033V35.162H62.7033ZM62.7033 52.8V53.8H63.7033V52.8H62.7033ZM58.1459 52.8H57.1459V53.8H58.1459V52.8ZM58.1459 35.162H59.1459V34.162H58.1459V35.162ZM51.4576 35.162V34.162H50.4576V35.162H51.4576ZM51.4576 79.1978H50.4576V80.1978H51.4576V79.1978ZM58.1459 79.1978V80.1978H59.1459V79.1978H58.1459ZM58.1459 60.8433H62.7033V58.8433H58.1459V60.8433ZM61.7033 59.8433V79.1978H63.7033V59.8433H61.7033ZM62.7033 80.1978H69.3916V78.1978H62.7033V80.1978ZM70.3916 79.1978V35.162H68.3916V79.1978H70.3916ZM69.3916 34.162H62.7033V36.162H69.3916V34.162ZM61.7033 35.162V52.8H63.7033V35.162H61.7033ZM62.7033 51.8H58.1459V53.8H62.7033V51.8ZM59.1459 52.8V35.162H57.1459V52.8H59.1459ZM58.1459 34.162H51.4576V36.162H58.1459V34.162ZM50.4576 35.162V79.1978H52.4576V35.162H50.4576ZM51.4576 80.1978H58.1459V78.1978H51.4576V80.1978ZM59.1459 79.1978V59.8433H57.1459V79.1978H59.1459ZM84.054 79.1978H83.054V80.1978H84.054V79.1978ZM90.7422 79.1978V80.1978H91.7422V79.1978H90.7422ZM90.7422 35.162H91.7422V34.162H90.7422V35.162ZM73.8737 35.162V34.162H72.8737V35.162H73.8737ZM73.4594 69.4318L72.4648 69.3271L72.4638 69.3367L72.463 69.3464L73.4594 69.4318ZM70.9143 72.3911V71.3911H69.9143V72.3911H70.9143ZM70.9143 79.1978H69.9143V80.1978H70.9143V79.1978ZM79.5557 72.2728L78.5592 72.1897L78.5584 72.1984L78.5579 72.2071L79.5557 72.2728ZM80.1476 41.5543V40.5543H79.1476V41.5543H80.1476ZM84.054 41.5543H85.054V40.5543H84.054V41.5543ZM84.054 80.1978H90.7422V78.1978H84.054V80.1978ZM91.7422 79.1978V35.162H89.7422V79.1978H91.7422ZM90.7422 34.162H73.8737V36.162H90.7422V34.162ZM72.8737 35.162C72.8737 58.3522 72.9311 64.8974 72.4648 69.3271L74.4539 69.5364C74.9346 64.9695 74.8737 58.2566 74.8737 35.162H72.8737ZM72.463 69.3464C72.371 70.4194 72.2566 70.9171 72.1046 71.1642C72.0541 71.2462 72.0099 71.2812 71.9481 71.3091C71.8665 71.3461 71.7028 71.3911 71.3878 71.3911V73.3911C71.8718 73.3911 72.3444 73.3252 72.7732 73.131C73.222 72.9278 73.5624 72.6113 73.8079 72.2124C74.2477 71.4977 74.3701 70.5157 74.4557 69.5172L72.463 69.3464ZM71.3878 71.3911H70.9143V73.3911H71.3878V71.3911ZM69.9143 72.3911V79.1978H71.9143V72.3911H69.9143ZM70.9143 80.1978H72.5715V78.1978H70.9143V80.1978ZM72.5715 80.1978C75.2099 80.1978 77.2013 79.552 78.5492 78.1033C79.871 76.6825 80.4002 74.6697 80.5536 72.3384L78.5579 72.2071C78.4153 74.3741 77.9382 75.8238 77.0849 76.741C76.2577 77.6301 74.905 78.1978 72.5715 78.1978V80.1978ZM80.5523 72.3558C81.0892 65.9123 81.1476 55.8016 81.1476 41.5543H79.1476C79.1476 55.8355 79.0876 65.8486 78.5592 72.1897L80.5523 72.3558ZM80.1476 42.5543H84.054V40.5543H80.1476V42.5543ZM83.054 41.5543V79.1978H85.054V41.5543H83.054ZM103.901 60.7311H104.901V59.7311H103.901V60.7311ZM103.901 79.1978H102.901V80.1978H103.901V79.1978ZM110.59 79.1978V80.1978H111.59V79.1978H110.59ZM110.59 35.162H111.59V34.162H110.59V35.162ZM96.6804 59.5474L97.6456 59.809L97.8964 58.8839L96.9827 58.5941L96.6804 59.5474ZM91.3535 79.1978L90.3883 78.9361L90.0463 80.1978H91.3535V79.1978ZM98.2193 79.1978V80.1978H98.9881L99.1857 79.4548L98.2193 79.1978ZM103.132 60.7311V59.7311H102.363L102.166 60.474L103.132 60.7311ZM103.901 54.3388V55.3388H104.901V54.3388H103.901ZM103.901 41.1399H104.901V40.1399H103.901V41.1399ZM102.901 60.7311V79.1978H104.901V60.7311H102.901ZM103.901 80.1978H110.59V78.1978H103.901V80.1978ZM111.59 79.1978V35.162H109.59V79.1978H111.59ZM110.59 34.162H99.7582V36.162H110.59V34.162ZM99.7582 34.162C97.4029 34.162 95.4023 34.6374 94.0049 35.9796C92.5995 37.3296 92.0108 39.3556 92.0108 41.9686H94.0108C94.0108 39.6098 94.5466 38.2325 95.3904 37.422C96.2421 36.6039 97.6152 36.162 99.7582 36.162V34.162ZM92.0108 41.9686V54.2205H94.0108V41.9686H92.0108ZM92.0108 54.2205C92.0108 55.7586 92.3552 57.1116 93.1131 58.2074C93.8755 59.3097 94.9943 60.0618 96.3782 60.5006L96.9827 58.5941C95.9398 58.2635 95.2238 57.7431 94.758 57.0697C94.2878 56.3899 94.0108 55.4641 94.0108 54.2205H92.0108ZM95.7153 59.2857L90.3883 78.9361L92.3187 79.4594L97.6456 59.809L95.7153 59.2857ZM91.3535 80.1978H98.2193V78.1978H91.3535V80.1978ZM99.1857 79.4548L104.098 60.9882L102.166 60.474L97.2529 78.9407L99.1857 79.4548ZM103.132 61.7311H103.901V59.7311H103.132V61.7311ZM103.901 53.3388H102.126V55.3388H103.901V53.3388ZM102.126 53.3388C101.445 53.3388 101.188 53.1366 101.044 52.9301C100.846 52.6462 100.699 52.1173 100.699 51.2019H98.699C98.699 52.2396 98.8482 53.2792 99.4045 54.0755C100.015 54.9492 100.971 55.3388 102.126 55.3388V53.3388ZM100.699 51.2019V43.981H98.699V51.2019H100.699ZM100.699 43.981C100.699 43.0213 100.808 42.6239 100.942 42.4421C101.008 42.3513 101.21 42.1399 102.126 42.1399V40.1399C100.97 40.1399 99.9583 40.402 99.3295 41.2583C98.7676 42.0235 98.699 43.0466 98.699 43.981H100.699ZM102.126 42.1399H103.901V40.1399H102.126V42.1399ZM102.901 41.1399V54.3388H104.901V41.1399H102.901ZM119.761 59.8433V58.8433H118.761V59.8433H119.761ZM124.319 59.8433H125.319V58.8433H124.319V59.8433ZM124.319 79.1978H123.319V80.1978H124.319V79.1978ZM131.007 79.1978V80.1978H132.007V79.1978H131.007ZM131.007 35.162H132.007V34.162H131.007V35.162ZM124.319 35.162V34.162H123.319V35.162H124.319ZM124.319 52.8V53.8H125.319V52.8H124.319ZM119.761 52.8H118.761V53.8H119.761V52.8ZM119.761 35.162H120.761V34.162H119.761V35.162ZM113.073 35.162V34.162H112.073V35.162H113.073ZM113.073 79.1978H112.073V80.1978H113.073V79.1978ZM119.761 79.1978V80.1978H120.761V79.1978H119.761ZM119.761 60.8433H124.319V58.8433H119.761V60.8433ZM123.319 59.8433V79.1978H125.319V59.8433H123.319ZM124.319 80.1978H131.007V78.1978H124.319V80.1978ZM132.007 79.1978V35.162H130.007V79.1978H132.007ZM131.007 34.162H124.319V36.162H131.007V34.162ZM123.319 35.162V52.8H125.319V35.162H123.319ZM124.319 51.8H119.761V53.8H124.319V51.8ZM120.761 52.8V35.162H118.761V52.8H120.761ZM119.761 34.162H113.073V36.162H119.761V34.162ZM112.073 35.162V79.1978H114.073V35.162H112.073ZM113.073 80.1978H119.761V78.1978H113.073V80.1978ZM120.761 79.1978V59.8433H118.761V79.1978H120.761ZM150.227 85.4125H149.227V86.4125H150.227V85.4125ZM156.323 85.4125V86.4125H157.323V85.4125H156.323ZM156.323 72.5095H157.323V71.5095H156.323V72.5095ZM153.364 72.5095H152.364V73.5095H153.364V72.5095ZM153.364 35.162H154.364V34.162H153.364V35.162ZM136.555 35.162V34.162H135.555V35.162H136.555ZM135.667 66.9459L136.652 67.1142L136.654 67.1039L136.656 67.0936L135.667 66.9459ZM134.009 72.5095V73.5095H134.639L134.911 72.9423L134.009 72.5095ZM132.53 72.5095V71.5095H131.53V72.5095H132.53ZM132.53 85.4125H131.53V86.4125H132.53V85.4125ZM138.626 85.4125V86.4125H139.626V85.4125H138.626ZM138.626 79.1978V78.1978H137.626V79.1978H138.626ZM150.227 79.1978H151.227V78.1978H150.227V79.1978ZM141.941 67.1234L140.95 66.9838L140.949 66.9963L141.941 67.1234ZM142.828 41.5543V40.5543H141.828V41.5543H142.828ZM146.676 41.5543H147.676V40.5543H146.676V41.5543ZM146.676 72.5095V73.5095H147.676V72.5095H146.676ZM140.639 72.5095L139.702 72.1584L139.196 73.5095H140.639V72.5095ZM150.227 86.4125H156.323V84.4125H150.227V86.4125ZM157.323 85.4125V72.5095H155.323V85.4125H157.323ZM156.323 71.5095H153.364V73.5095H156.323V71.5095ZM154.364 72.5095V35.162H152.364V72.5095H154.364ZM153.364 34.162H136.555V36.162H153.364V34.162ZM135.555 35.162C135.555 53.1933 135.433 61.7412 134.678 66.7981L136.656 67.0936C137.439 61.8518 137.555 53.1168 137.555 35.162H135.555ZM134.681 66.7776C134.279 69.1319 133.77 70.6969 133.108 72.0768L134.911 72.9423C135.669 71.3628 136.226 69.6132 136.652 67.1142L134.681 66.7776ZM134.009 71.5095H132.53V73.5095H134.009V71.5095ZM131.53 72.5095V85.4125H133.53V72.5095H131.53ZM132.53 86.4125H138.626V84.4125H132.53V86.4125ZM139.626 85.4125V79.1978H137.626V85.4125H139.626ZM138.626 80.1978H150.227V78.1978H138.626V80.1978ZM149.227 79.1978V85.4125H151.227V79.1978H149.227ZM142.931 67.2631C143.593 62.5648 143.828 55.154 143.828 41.5543H141.828C141.828 55.181 141.59 62.4487 140.95 66.9838L142.931 67.2631ZM142.828 42.5543H146.676V40.5543H142.828V42.5543ZM145.676 41.5543V72.5095H147.676V41.5543H145.676ZM146.676 71.5095H140.639V73.5095H146.676V71.5095ZM141.575 72.8606C142.133 71.3727 142.626 69.6405 142.933 67.2506L140.949 66.9963C140.663 69.223 140.21 70.8053 139.702 72.1584L141.575 72.8606ZM169.351 79.1978H168.351V80.1978H169.351V79.1978ZM176.039 79.1978V80.1978H177.039V79.1978H176.039ZM176.039 35.162H177.039V34.162H176.039V35.162ZM169.351 35.162V34.162H168.532L168.371 34.9649L169.351 35.162ZM164.557 59.0147H163.557L165.537 59.2117L164.557 59.0147ZM164.557 35.162H165.557V34.162H164.557V35.162ZM157.869 35.162V34.162H156.869V35.162H157.869ZM157.869 79.1978H156.869V80.1978H157.869V79.1978ZM164.557 79.1978V80.1978H165.376L165.537 79.3948L164.557 79.1978ZM169.351 55.345H170.351L168.371 55.148L169.351 55.345ZM169.351 80.1978H176.039V78.1978H169.351V80.1978ZM177.039 79.1978V35.162H175.039V79.1978H177.039ZM176.039 34.162H169.351V36.162H176.039V34.162ZM168.371 34.9649L163.577 58.8176L165.537 59.2117L170.332 35.359L168.371 34.9649ZM165.557 59.0147V35.162H163.557V59.0147H165.557ZM164.557 34.162H157.869V36.162H164.557V34.162ZM156.869 35.162V79.1978H158.869V35.162H156.869ZM157.869 80.1978H164.557V78.1978H157.869V80.1978ZM165.537 79.3948L170.332 55.5421L168.371 55.148L163.577 79.0007L165.537 79.3948ZM168.351 55.345V79.1978H170.351V55.345H168.351ZM189.157 60.7311H190.157V59.7311H189.157V60.7311ZM189.157 79.1978H188.157V80.1978H189.157V79.1978ZM195.846 79.1978V80.1978H196.846V79.1978H195.846ZM195.846 35.162H196.846V34.162H195.846V35.162ZM181.936 59.5474L182.902 59.809L183.152 58.8839L182.239 58.5941L181.936 59.5474ZM176.61 79.1978L175.644 78.9361L175.302 80.1978H176.61V79.1978ZM183.475 79.1978V80.1978H184.244L184.442 79.4548L183.475 79.1978ZM188.388 60.7311V59.7311H187.619L187.422 60.474L188.388 60.7311ZM189.157 54.3388V55.3388H190.157V54.3388H189.157ZM189.157 41.1399H190.157V40.1399H189.157V41.1399ZM188.157 60.7311V79.1978H190.157V60.7311H188.157ZM189.157 80.1978H195.846V78.1978H189.157V80.1978ZM196.846 79.1978V35.162H194.846V79.1978H196.846ZM195.846 34.162H185.014V36.162H195.846V34.162ZM185.014 34.162C182.659 34.162 180.658 34.6374 179.261 35.9796C177.856 37.3296 177.267 39.3556 177.267 41.9686H179.267C179.267 39.6098 179.803 38.2325 180.646 37.422C181.498 36.6039 182.871 36.162 185.014 36.162V34.162ZM177.267 41.9686V54.2205H179.267V41.9686H177.267ZM177.267 54.2205C177.267 55.7586 177.611 57.1116 178.369 58.2074C179.132 59.3097 180.25 60.0618 181.634 60.5006L182.239 58.5941C181.196 58.2635 180.48 57.7431 180.014 57.0697C179.544 56.3899 179.267 55.4641 179.267 54.2205H177.267ZM180.971 59.2857L175.644 78.9361L177.575 79.4594L182.902 59.809L180.971 59.2857ZM176.61 80.1978H183.475V78.1978H176.61V80.1978ZM184.442 79.4548L189.354 60.9882L187.422 60.474L182.509 78.9407L184.442 79.4548ZM188.388 61.7311H189.157V59.7311H188.388V61.7311ZM189.157 53.3388H187.382V55.3388H189.157V53.3388ZM187.382 53.3388C186.701 53.3388 186.444 53.1366 186.3 52.9301C186.102 52.6462 185.955 52.1173 185.955 51.2019H183.955C183.955 52.2396 184.104 53.2792 184.661 54.0755C185.271 54.9492 186.227 55.3388 187.382 55.3388V53.3388ZM185.955 51.2019V43.981H183.955V51.2019H185.955ZM185.955 43.981C185.955 43.0213 186.064 42.6239 186.198 42.4421C186.264 42.3513 186.466 42.1399 187.382 42.1399V40.1399C186.226 40.1399 185.214 40.402 184.586 41.2583C184.024 42.0235 183.955 43.0466 183.955 43.981H185.955ZM187.382 42.1399H189.157V40.1399H187.382V42.1399ZM188.157 41.1399V54.3388H190.157V41.1399H188.157Z" fill="white"/>
</svg>
