<svg width="131" height="40" viewBox="0 0 131 40" fill="none" xmlns="http://www.w3.org/2000/svg">
<path d="M0.316406 4.36524C0.316406 1.95439 2.27812 0 4.69802 0H126.507C128.927 0 130.889 1.95439 130.889 4.36524V34.922C130.889 37.3328 128.927 39.2872 126.507 39.2872H4.69802C2.27812 39.2872 0.316406 37.3328 0.316406 34.922V4.36524Z" fill="black"/>
<path fill-rule="evenodd" clip-rule="evenodd" d="M126.507 0.873049H4.69802C2.7621 0.873049 1.19273 2.43656 1.19273 4.36524V34.922C1.19273 36.8506 2.7621 38.4142 4.69802 38.4142H126.507C128.443 38.4142 130.012 36.8506 130.012 34.922V4.36524C130.012 2.43656 128.443 0.873049 126.507 0.873049ZM4.69802 0C2.27812 0 0.316406 1.95439 0.316406 4.36524V34.922C0.316406 37.3328 2.27812 39.2872 4.69802 39.2872H126.507C128.927 39.2872 130.889 37.3328 130.889 34.922V4.36524C130.889 1.95439 128.927 0 126.507 0H4.69802Z" fill="white"/>
<path d="M56.9362 14.9297V9.33899H58.6456C59.0315 9.33899 59.3259 9.36569 59.529 9.41908C59.8134 9.4928 60.0559 9.62628 60.2568 9.8195C60.5185 10.0687 60.7137 10.3877 60.8424 10.7767C60.9733 11.1631 61.0387 11.6055 61.0387 12.1038C61.0387 12.5284 60.9947 12.9047 60.9067 13.2326C60.8187 13.5606 60.7058 13.8326 60.5682 14.0487C60.4305 14.2623 60.2793 14.4314 60.1146 14.5559C59.9521 14.678 59.7547 14.7708 59.5223 14.8343C59.2921 14.8979 59.0269 14.9297 58.7268 14.9297H56.9362ZM57.5929 14.2699H58.6523C58.9796 14.2699 59.2357 14.2356 59.4207 14.1669C59.608 14.0983 59.7569 14.0017 59.8675 13.8771C60.0232 13.7017 60.144 13.4665 60.2297 13.1716C60.3177 12.8742 60.3617 12.5144 60.3617 12.0924C60.3617 11.5076 60.276 11.0589 60.1045 10.7462C59.9352 10.4309 59.7287 10.2199 59.485 10.1131C59.309 10.0369 59.0258 9.99874 58.6354 9.99874H57.5929V14.2699Z" fill="white"/>
<path d="M61.6412 12.9047C61.6412 12.1547 61.8262 11.5992 62.1963 11.2381C62.5055 10.9381 62.8823 10.7881 63.3269 10.7881C63.8211 10.7881 64.225 10.9712 64.5387 11.3373C64.8523 11.7009 65.0092 12.2042 65.0092 12.8475C65.0092 13.3686 64.9392 13.7792 64.7993 14.0792C64.6617 14.3767 64.4597 14.608 64.1934 14.7733C63.9294 14.9386 63.6405 15.0212 63.3269 15.0212C62.8237 15.0212 62.4163 14.8394 62.1049 14.4758C61.7958 14.1123 61.6412 13.5886 61.6412 12.9047ZM62.2674 12.9047C62.2674 13.4233 62.3678 13.8123 62.5687 14.0716C62.7695 14.3284 63.0222 14.4568 63.3269 14.4568C63.6293 14.4568 63.8809 14.3271 64.0817 14.0678C64.2826 13.8085 64.383 13.4131 64.383 12.8818C64.383 12.3809 64.2814 12.0021 64.0783 11.7453C63.8775 11.486 63.627 11.3564 63.3269 11.3564C63.0222 11.3564 62.7695 11.4847 62.5687 11.7415C62.3678 11.9983 62.2674 12.386 62.2674 12.9047Z" fill="white"/>
<path d="M66.3902 14.9297L65.2901 10.8797H65.9197L66.4918 13.2174L66.705 14.0869C66.714 14.0436 66.7761 13.7653 66.8912 13.2517L67.4632 10.8797H68.0894L68.6276 13.2288L68.807 14.003L69.0135 13.2212L69.6296 10.8797H70.2219L69.0981 14.9297H68.4652L67.8931 12.5042L67.7543 11.814L67.0266 14.9297H66.3902Z" fill="white"/>
<path d="M70.7364 14.9297V10.8797H71.2848V11.4555C71.5488 11.0106 71.9302 10.7881 72.4289 10.7881C72.6455 10.7881 72.8441 10.8326 73.0246 10.9216C73.2074 11.0081 73.3439 11.1225 73.4342 11.2648C73.5244 11.4072 73.5876 11.5763 73.6237 11.772C73.6463 11.8992 73.6576 12.1216 73.6576 12.4394V14.9297H73.0483V12.4661C73.0483 12.1864 73.0246 11.978 72.9772 11.8407C72.9298 11.7009 72.8452 11.5903 72.7233 11.5089C72.6037 11.425 72.4627 11.3831 72.3002 11.3831C72.0407 11.3831 71.8162 11.4759 71.6266 11.6614C71.4393 11.847 71.3457 12.1992 71.3457 12.7178V14.9297H70.7364Z" fill="white"/>
<path d="M74.5817 14.9297V9.33899H75.1909V14.9297H74.5817Z" fill="white"/>
<path d="M75.9119 12.9047C75.9119 12.1547 76.097 11.5992 76.467 11.2381C76.7762 10.9381 77.153 10.7881 77.5976 10.7881C78.0918 10.7881 78.4957 10.9712 78.8094 11.3373C79.1231 11.7009 79.2799 12.2042 79.2799 12.8475C79.2799 13.3686 79.2099 13.7792 79.07 14.0792C78.9324 14.3767 78.7304 14.608 78.4641 14.7733C78.2001 14.9386 77.9113 15.0212 77.5976 15.0212C77.0944 15.0212 76.6871 14.8394 76.3756 14.4758C76.0665 14.1123 75.9119 13.5886 75.9119 12.9047ZM76.5381 12.9047C76.5381 13.4233 76.6385 13.8123 76.8394 14.0716C77.0402 14.3284 77.293 14.4568 77.5976 14.4568C77.9 14.4568 78.1516 14.3271 78.3524 14.0678C78.5533 13.8085 78.6537 13.4131 78.6537 12.8818C78.6537 12.3809 78.5521 12.0021 78.349 11.7453C78.1482 11.486 77.8977 11.3564 77.5976 11.3564C77.293 11.3564 77.0402 11.4847 76.8394 11.7415C76.6385 11.9983 76.5381 12.386 76.5381 12.9047Z" fill="white"/>
<path d="M82.3432 14.4301C82.1176 14.6462 81.8998 14.7987 81.6899 14.8877C81.4823 14.9767 81.2589 15.0212 81.0197 15.0212C80.6248 15.0212 80.3213 14.9131 80.1092 14.697C79.8971 14.4784 79.791 14.2 79.791 13.8619C79.791 13.6636 79.8305 13.483 79.9095 13.3203C79.9907 13.1551 80.0956 13.0229 80.2243 12.9237C80.3552 12.8246 80.5018 12.7496 80.6643 12.6987C80.7839 12.6631 80.9644 12.6288 81.2059 12.5958C81.6978 12.5297 82.06 12.4508 82.2924 12.3593C82.2947 12.2653 82.2958 12.2055 82.2958 12.1801C82.2958 11.9004 82.2383 11.7034 82.1232 11.589C81.9675 11.4339 81.7362 11.3564 81.4293 11.3564C81.1427 11.3564 80.9306 11.4136 80.7929 11.528C80.6575 11.6398 80.5571 11.8394 80.4917 12.1267L79.8959 12.0352C79.9501 11.7479 80.0392 11.5165 80.1633 11.3411C80.2875 11.1631 80.4669 11.0271 80.7015 10.9331C80.9362 10.8364 81.2081 10.7881 81.5173 10.7881C81.8242 10.7881 82.0736 10.8288 82.2654 10.9102C82.4572 10.9915 82.5982 11.0945 82.6885 11.2191C82.7787 11.3411 82.8419 11.4962 82.878 11.6843C82.8983 11.8013 82.9085 12.0123 82.9085 12.3174V13.2326C82.9085 13.8708 82.9209 14.275 82.9457 14.4453C82.9728 14.6131 83.0247 14.7746 83.1014 14.9297H82.4651C82.4019 14.7873 82.3613 14.6208 82.3432 14.4301ZM82.2924 12.897C82.0713 12.9987 81.7396 13.0852 81.2973 13.1564C81.0468 13.197 80.8697 13.2428 80.7659 13.2936C80.6621 13.3445 80.5819 13.4195 80.5255 13.5186C80.4691 13.6153 80.4409 13.7233 80.4409 13.8428C80.4409 14.0258 80.5018 14.1784 80.6237 14.3004C80.7478 14.4225 80.9283 14.4835 81.1653 14.4835C81.4 14.4835 81.6087 14.4263 81.7915 14.3119C81.9743 14.1949 82.1085 14.036 82.1943 13.8352C82.2597 13.6801 82.2924 13.4513 82.2924 13.1487V12.897Z" fill="white"/>
<path d="M86.1885 14.9297V14.4186C85.9605 14.8203 85.6254 15.0212 85.1831 15.0212C84.8966 15.0212 84.6325 14.9322 84.3911 14.7542C84.1519 14.5763 83.9657 14.3284 83.8326 14.0106C83.7017 13.6903 83.6362 13.3229 83.6362 12.9085C83.6362 12.5042 83.696 12.1381 83.8156 11.8102C83.9352 11.4797 84.1146 11.2267 84.3538 11.0513C84.593 10.8759 84.8604 10.7881 85.1561 10.7881C85.3727 10.7881 85.5656 10.8403 85.7349 10.9445C85.9041 11.0462 86.0418 11.1797 86.1478 11.3449V9.33899H86.7537V14.9297H86.1885ZM84.2624 12.9085C84.2624 13.4271 84.3595 13.8148 84.5535 14.0716C84.7476 14.3284 84.9767 14.4568 85.2407 14.4568C85.507 14.4568 85.7326 14.3347 85.9177 14.0907C86.105 13.8441 86.1986 13.4691 86.1986 12.9657C86.1986 12.4114 86.1038 12.0047 85.9143 11.7453C85.7247 11.486 85.4912 11.3564 85.2136 11.3564C84.9428 11.3564 84.716 11.4809 84.5332 11.7301C84.3527 11.9792 84.2624 12.372 84.2624 12.9085Z" fill="white"/>
<path d="M89.79 14.9297V11.4136H89.2518V10.8797H89.79V10.4487C89.79 10.1767 89.8114 9.97458 89.8543 9.84238C89.913 9.66441 90.0156 9.52077 90.1623 9.41145C90.3113 9.29958 90.5189 9.24365 90.7851 9.24365C90.9566 9.24365 91.1462 9.26653 91.3538 9.3123L91.2624 9.91102C91.136 9.8856 91.0164 9.87289 90.9036 9.87289C90.7186 9.87289 90.5877 9.91738 90.511 10.0064C90.4342 10.0953 90.3959 10.2619 90.3959 10.5059V10.8797H91.0965V11.4136H90.3959V14.9297H89.79Z" fill="white"/>
<path d="M91.347 12.9047C91.347 12.1547 91.5321 11.5992 91.9022 11.2381C92.2113 10.9381 92.5882 10.7881 93.0327 10.7881C93.5269 10.7881 93.9308 10.9712 94.2445 11.3373C94.5582 11.7009 94.715 12.2042 94.715 12.8475C94.715 13.3686 94.645 13.7792 94.5051 14.0792C94.3675 14.3767 94.1655 14.608 93.8992 14.7733C93.6352 14.9386 93.3464 15.0212 93.0327 15.0212C92.5295 15.0212 92.1222 14.8394 91.8108 14.4758C91.5016 14.1123 91.347 13.5886 91.347 12.9047ZM91.9732 12.9047C91.9732 13.4233 92.0737 13.8123 92.2745 14.0716C92.4753 14.3284 92.7281 14.4568 93.0327 14.4568C93.3351 14.4568 93.5867 14.3271 93.7875 14.0678C93.9884 13.8085 94.0888 13.4131 94.0888 12.8818C94.0888 12.3809 93.9872 12.0021 93.7842 11.7453C93.5833 11.486 93.3328 11.3564 93.0327 11.3564C92.7281 11.3564 92.4753 11.4847 92.2745 11.7415C92.0737 11.9983 91.9732 12.386 91.9732 12.9047Z" fill="white"/>
<path d="M95.4258 14.9297V10.8797H95.9742V11.4936C96.1141 11.2064 96.2427 11.017 96.3601 10.9254C96.4797 10.8339 96.6105 10.7881 96.7527 10.7881C96.9581 10.7881 97.1668 10.8619 97.3789 11.0093L97.169 11.6462C97.0201 11.547 96.8712 11.4975 96.7222 11.4975C96.5891 11.4975 96.4695 11.5432 96.3634 11.6347C96.2574 11.7237 96.1818 11.8483 96.1367 12.0085C96.069 12.2525 96.0351 12.5195 96.0351 12.8093V14.9297H95.4258Z" fill="white"/>
<path d="M62.401 22.1546V23.6707C61.6974 22.5954 60.5714 21.9255 59.0761 21.9255C56.6307 21.9255 54.6252 23.9528 54.6252 26.5619C54.6252 29.171 56.6307 31.1984 59.0761 31.1984C60.5714 31.1984 61.6974 30.5285 62.401 29.4531V30.9692H63.9316V22.1546H62.401ZM59.2696 29.7175C57.5104 29.7175 56.1557 28.3601 56.1557 26.5619C56.1557 24.7637 57.5104 23.4063 59.2696 23.4063C61.0464 23.4063 62.401 24.7637 62.401 26.5619C62.401 28.3601 61.0464 29.7175 59.2696 29.7175Z" fill="white"/>
<path d="M70.631 21.9255C69.3995 21.9255 68.4319 22.3838 67.781 23.4239V22.1546H66.2505V30.9692H67.781V26.2975C67.781 24.2172 68.9245 23.3887 70.3319 23.3887C71.6865 23.3887 72.5134 24.1996 72.5134 25.6452V30.9692H74.0439V25.5571C74.0439 23.3005 72.6893 21.9255 70.631 21.9255Z" fill="white"/>
<path d="M83.4638 18.6288V23.6707C82.7601 22.5954 81.6342 21.9255 80.1389 21.9255C77.6935 21.9255 75.688 23.9528 75.688 26.5619C75.688 29.171 77.6935 31.1984 80.1389 31.1984C81.6342 31.1984 82.7601 30.5285 83.4638 29.4531V30.9692H84.9944V18.6288H83.4638ZM80.3324 29.7175C78.5732 29.7175 77.2185 28.3601 77.2185 26.5619C77.2185 24.7637 78.5732 23.4063 80.3324 23.4063C82.1092 23.4063 83.4638 24.7637 83.4638 26.5619C83.4638 28.3601 82.1092 29.7175 80.3324 29.7175Z" fill="white"/>
<path d="M88.8438 23.6355V22.1546H87.3133V30.9692H88.8438V26.2975C88.8438 24.2172 90.2688 23.5473 91.5882 23.6002V21.996C90.4799 21.996 89.4068 22.4014 88.8438 23.6355Z" fill="white"/>
<path d="M96.739 31.1984C99.3075 31.1984 101.383 29.171 101.383 26.5619C101.383 23.9528 99.3075 21.9255 96.739 21.9255C94.1705 21.9255 92.1122 23.9528 92.1122 26.5619C92.1122 29.171 94.1705 31.1984 96.739 31.1984ZM96.739 29.6999C94.9973 29.6999 93.6427 28.3424 93.6427 26.5619C93.6427 24.7814 94.9973 23.4239 96.739 23.4239C98.4982 23.4239 99.8528 24.7814 99.8528 26.5619C99.8528 28.3424 98.4982 29.6999 96.739 29.6999Z" fill="white"/>
<path d="M103.962 20.5504C104.525 20.5504 104.982 20.092 104.982 19.5279C104.982 18.9638 104.525 18.4878 103.962 18.4878C103.381 18.4878 102.924 18.9638 102.924 19.5279C102.924 20.092 103.381 20.5504 103.962 20.5504ZM103.188 30.9692H104.718V22.1546H103.188V30.9692Z" fill="white"/>
<path d="M114.336 18.6288V23.6707C113.633 22.5954 112.507 21.9255 111.012 21.9255C108.566 21.9255 106.561 23.9528 106.561 26.5619C106.561 29.171 108.566 31.1984 111.012 31.1984C112.507 31.1984 113.633 30.5285 114.336 29.4531V30.9692H115.867V18.6288H114.336ZM111.205 29.7175C109.446 29.7175 108.091 28.3601 108.091 26.5619C108.091 24.7637 109.446 23.4063 111.205 23.4063C112.982 23.4063 114.336 24.7637 114.336 26.5619C114.336 28.3601 112.982 29.7175 111.205 29.7175Z" fill="white"/>
<path fill-rule="evenodd" clip-rule="evenodd" d="M48.8479 30.0422H8.40517C9.87569 20.2331 18.369 12.7096 28.6265 12.7096C38.884 12.7096 47.3774 20.2331 48.8479 30.0422Z" fill="white"/>
<path d="M39.6038 24.2647C39.6038 25.5411 38.5691 26.5758 37.2928 26.5758C36.0165 26.5758 34.9818 25.5411 34.9818 24.2647C34.9818 22.9884 36.0165 21.9537 37.2928 21.9537C38.5691 21.9537 39.6038 22.9884 39.6038 24.2647Z" fill="black"/>
<path d="M21.1157 24.2647C21.1157 25.5411 20.081 26.5758 18.8047 26.5758C17.5284 26.5758 16.4937 25.5411 16.4937 24.2647C16.4937 22.9884 17.5284 21.9537 18.8047 21.9537C20.081 21.9537 21.1157 22.9884 21.1157 24.2647Z" fill="black"/>
<path d="M35.8487 18.717C35.6385 18.5957 35.5665 18.3269 35.6879 18.1168L40.9605 8.98421C41.0819 8.77405 41.3506 8.70205 41.5608 8.82338C41.7709 8.94472 41.8429 9.21344 41.7216 9.4236L36.4489 18.5562C36.3276 18.7663 36.0588 18.8383 35.8487 18.717Z" fill="white"/>
<path d="M21.3485 18.717C21.5587 18.5957 21.6307 18.3269 21.5093 18.1168L16.2366 8.98421C16.1153 8.77405 15.8466 8.70205 15.6364 8.82338C15.4263 8.94472 15.3543 9.21344 15.4756 9.4236L20.7483 18.5562C20.8696 18.7663 21.1383 18.8383 21.3485 18.717Z" fill="white"/>
</svg>
