<svg width="78" height="78" viewBox="0 0 78 78" fill="none" xmlns="http://www.w3.org/2000/svg">
<path d="M45.5984 59.4574H39.3498C39.4216 58.9843 39.6401 58.5406 40.0023 58.1241C40.3655 57.7087 41.0462 57.2172 42.0445 56.6506C42.6557 56.3037 43.045 56.0394 43.2158 55.8611C43.3865 55.6817 43.4724 55.5098 43.4724 55.3478C43.4724 55.1727 43.3865 55.0226 43.219 54.8987C43.0494 54.7758 42.8373 54.7127 42.5818 54.7127C42.3142 54.7127 42.0978 54.7769 41.9293 54.9052C41.7629 55.0313 41.6487 55.2586 41.5889 55.5827L39.5031 55.4533C39.5847 55.0042 39.7358 54.654 39.9533 54.4017C40.1719 54.1505 40.4786 53.9569 40.8766 53.8232C41.2724 53.6883 41.8227 53.622 42.5263 53.622C43.2582 53.622 43.828 53.6861 44.2369 53.8134C44.6436 53.9417 44.9644 54.1385 45.196 54.4028C45.4299 54.6681 45.5473 54.965 45.5473 55.2934C45.5473 55.6436 45.4125 55.9774 45.146 56.295C44.8796 56.6125 44.3924 56.9627 43.6866 57.3444C43.2658 57.5662 42.9863 57.7207 42.846 57.8098C42.7046 57.8979 42.5372 58.0143 42.3469 58.1567H45.5984V59.4574ZM32.0931 59.4574H25.8445C25.9162 58.9843 26.1348 58.5406 26.4969 58.1241C26.8602 57.7087 27.5409 57.2172 28.5392 56.6506C29.1504 56.3037 29.5397 56.0394 29.7104 55.8611C29.8812 55.6817 29.9671 55.5098 29.9671 55.3478C29.9671 55.1727 29.8812 55.0226 29.7137 54.8987C29.5451 54.7758 29.332 54.7127 29.0764 54.7127C28.81 54.7127 28.5925 54.7769 28.4239 54.9052C28.2565 55.0313 28.1423 55.2586 28.0836 55.5827L25.9978 55.4533C26.0804 55.0042 26.2305 54.654 26.448 54.4017C26.6655 54.1505 26.9732 53.9569 27.3713 53.8232C27.7682 53.6883 28.3174 53.622 29.021 53.622C29.7528 53.622 30.3238 53.6861 30.7316 53.8134C31.1383 53.9417 31.4591 54.1385 31.6918 54.4028C31.9256 54.6681 32.0431 54.965 32.0431 55.2934C32.0431 55.6436 31.9093 55.9774 31.6418 56.295C31.3753 56.6125 30.8871 56.9627 30.1824 57.3444C29.7615 57.5662 29.482 57.7207 29.3418 57.8098C29.1993 57.8979 29.0318 58.0143 28.8426 58.1567H32.0942V59.4574H32.0931ZM32.59 56.5647C32.59 55.4739 32.8684 54.7095 33.4231 54.2745C33.9777 53.8395 34.8237 53.6209 35.959 53.6209C36.5039 53.6209 36.9541 53.6677 37.3032 53.7644C37.6544 53.859 37.9393 53.9841 38.1601 54.1364C38.3809 54.2886 38.5559 54.4485 38.6832 54.617C38.8115 54.7856 38.9137 54.9813 38.9909 55.2064C39.1421 55.636 39.2171 56.0818 39.2171 56.5451C39.2171 57.5869 38.9681 58.3492 38.47 58.831C37.973 59.3149 37.1161 59.5552 35.8981 59.5552C35.2163 59.5552 34.665 59.4791 34.2441 59.3236C33.8232 59.1703 33.4796 58.9441 33.2099 58.6472C33.0153 58.4351 32.8619 58.1459 32.7543 57.7794C32.6455 57.4129 32.59 57.0073 32.59 56.5647ZM34.8259 56.5679C34.8259 57.2987 34.9162 57.7968 35.0999 58.0643C35.2805 58.3329 35.5469 58.4667 35.8927 58.4667C36.1211 58.4667 36.3201 58.408 36.4876 58.2959C36.655 58.1828 36.779 58.0034 36.8573 57.7587C36.9367 57.513 36.9769 57.1302 36.9769 56.6104C36.9769 55.8491 36.8867 55.3358 36.7029 55.0738C36.5213 54.8117 36.2472 54.6812 35.8818 54.6812C35.5099 54.6812 35.2402 54.8149 35.076 55.0814C34.9096 55.35 34.8259 55.8459 34.8259 56.5679ZM51.2468 47.9454L50.4094 45.5573L49.5753 47.9454H51.2468ZM51.7405 49.3819H49.0696L48.7021 50.4781H46.3053L49.1555 43.8358H51.7122L54.5635 50.4781H52.1113L51.7405 49.3819ZM43.0461 48.9469V45.4681H41.2387V45.554C41.2387 46.4718 41.068 47.6028 40.7265 48.948H43.0461V48.9469ZM46.0791 51.5014H44.2684V50.4781H39.6206V51.5014H37.8121V48.9469H38.5625C38.9822 47.8736 39.1943 46.6643 39.1943 45.3191V43.8358H45.2972V48.9469H46.0791V51.5014ZM32.3932 47.1711C32.3932 47.8421 32.5357 48.3238 32.8195 48.6174C33.1033 48.9078 33.4937 49.0557 33.982 49.0557C34.4844 49.0557 34.8759 48.9132 35.1511 48.625C35.424 48.339 35.5643 47.8214 35.5643 47.0797C35.5643 46.4534 35.4207 45.9988 35.1337 45.7084C34.8444 45.4203 34.4551 45.2778 33.9614 45.2778C33.4872 45.2778 33.1099 45.4246 32.8217 45.716C32.5379 46.0086 32.3932 46.4947 32.3932 47.1711ZM30.0486 47.1613C30.0486 46.0771 30.3944 45.2343 31.0828 44.6297C31.7734 44.025 32.7347 43.7249 33.9657 43.7249C35.2283 43.7249 36.2026 44.0218 36.8856 44.6144C37.5674 45.206 37.91 46.0379 37.91 47.1069C37.91 47.8834 37.761 48.5217 37.4619 49.0187C37.1629 49.5146 36.7333 49.8996 36.1678 50.1769C35.6045 50.4542 34.9031 50.5934 34.0592 50.5934C33.2045 50.5934 32.4965 50.4737 31.9343 50.2356C31.3753 49.9942 30.9219 49.6179 30.5706 49.0992C30.2226 48.5837 30.0486 47.9378 30.0486 47.1613ZM30.016 45.4681H26.8384V50.4781H24.4982V43.8358H30.016V45.4681ZM21.052 37.5165H22.084C22.4559 37.5165 22.7125 37.461 22.8593 37.3512C23.0018 37.2403 23.0747 37.0793 23.0747 36.8749C23.0747 36.6781 23.0018 36.5269 22.8593 36.4203C22.7114 36.3105 22.4602 36.2583 22.1003 36.2583H21.052V37.5165ZM21.052 40.1243H22.2645C22.6734 40.1243 22.9594 40.0655 23.1269 39.9394C23.2954 39.8132 23.3792 39.6447 23.3792 39.4337C23.3792 39.2369 23.2976 39.0781 23.129 38.9607C22.9659 38.8399 22.6756 38.7801 22.2569 38.7801H21.052V40.1243ZM18.6562 34.9109H23.1018C23.8446 34.9109 24.4133 35.0708 24.8092 35.3883C25.2072 35.7058 25.4051 36.0973 25.4051 36.5639C25.4051 36.9564 25.2648 37.2936 24.9799 37.5774C24.7896 37.7623 24.5145 37.9102 24.1513 38.0189C24.7026 38.1353 25.1082 38.3321 25.3714 38.6116C25.6313 38.89 25.7607 39.2423 25.7607 39.6643C25.7607 40.0101 25.6683 40.3189 25.4834 40.593C25.2975 40.8681 25.043 41.0878 24.7222 41.2465C24.5243 41.3466 24.223 41.4194 23.8196 41.4629C23.2856 41.5238 22.93 41.5565 22.7549 41.5565H18.6562V34.9109ZM33.969 34.9109H36.3494V41.5554H33.969V34.9109ZM28.9579 40.1243H30.1769C30.9219 40.1243 31.2916 39.8948 31.2916 39.4294C31.2916 39.0194 30.9208 38.8171 30.1769 38.8171H28.9579V40.1243ZM28.9579 37.4708H30.0823C31.247 37.4708 32.1094 37.6481 32.6727 38.0037C33.2338 38.3571 33.5166 38.9095 33.5166 39.6599C33.5166 40.2722 33.2589 40.7398 32.7412 41.066C32.2257 41.3912 31.4874 41.5543 30.5238 41.5543H26.5894V34.9098H28.9579V37.4708ZM39.7522 40.1243H40.9669C41.7107 40.1243 42.0859 39.8948 42.0859 39.4294C42.0859 39.0194 41.7107 38.8171 40.9669 38.8171H39.7522V40.1243ZM39.7522 37.4708H41.0223C42.1837 37.4708 43.0472 37.6481 43.6094 38.0037C44.1727 38.3571 44.4544 38.9095 44.4544 39.6599C44.4544 40.2722 44.1967 40.7398 43.6823 41.066C43.1646 41.3912 42.4273 41.5543 41.4617 41.5543H37.3793V34.9098H43.853V36.2572H39.7532V37.4708H39.7522ZM47.2449 38.2451C47.2449 38.9172 47.3895 39.3967 47.6744 39.6914C47.9637 39.984 48.3595 40.1308 48.8543 40.1308C49.3643 40.1308 49.7569 39.9861 50.0397 39.7001C50.3181 39.4141 50.4583 38.8976 50.4583 38.1559C50.4583 37.5274 50.3104 37.0739 50.0212 36.7835C49.7286 36.4964 49.3317 36.3518 48.8336 36.3518C48.3541 36.3518 47.9691 36.4986 47.6809 36.7922C47.3895 37.0826 47.2449 37.5698 47.2449 38.2451ZM44.8665 38.2375C44.8665 37.1522 45.22 36.3083 45.917 35.7058C46.6174 35.099 47.5885 34.7978 48.8369 34.7978C50.1169 34.7978 51.1054 35.0947 51.7959 35.6895C52.4876 36.2811 52.8345 37.113 52.8345 38.1809C52.8345 38.9596 52.6833 39.5968 52.381 40.0916C52.0754 40.5875 51.6415 40.9736 51.0695 41.2487C50.4964 41.5249 49.7874 41.6652 48.9348 41.6652C48.0659 41.6652 47.3492 41.5456 46.7805 41.3074C46.215 41.0682 45.7528 40.6908 45.3983 40.1743C45.0449 39.6599 44.8665 39.0118 44.8665 38.2375ZM55.8827 37.7416H56.4666C56.9245 37.7416 57.2431 37.6742 57.4312 37.5372C57.6161 37.399 57.7085 37.2229 57.7085 37.0108C57.7085 36.8009 57.627 36.6237 57.4671 36.4801C57.3072 36.3355 57.0038 36.2626 56.5612 36.2626H55.8827V37.7416ZM53.4946 34.9109H57.4443C58.3023 34.9109 58.9461 35.0892 59.3756 35.4416C59.8041 35.7939 60.0183 36.2996 60.0183 36.9488C60.0183 37.622 59.7856 38.144 59.3191 38.5213C58.8525 38.8998 58.1381 39.0879 57.1811 39.0879H55.8837V41.5543H53.4967V34.9109H53.4946ZM33.4948 32.4804H31.2274L28.5751 29.4964V32.4804H26.0728V25.5891H28.313L30.9708 28.6471V25.5891H33.4948V32.4804ZM36.4473 28.6123C36.6485 28.6123 36.7975 28.5514 36.8921 28.4317C36.99 28.311 37.0378 28.1131 37.0378 27.8401C37.0378 27.5715 36.9921 27.3758 36.9008 27.2616C36.8062 27.142 36.6637 27.0822 36.4636 27.0822C36.2537 27.0822 36.1015 27.142 36.0047 27.2616C35.909 27.3758 35.8601 27.5748 35.8601 27.8554C35.8601 28.36 36.0558 28.6123 36.4473 28.6123ZM36.4354 26.2035C37.1009 26.2035 37.6109 26.3601 37.9611 26.6722C38.3123 26.9854 38.4863 27.3704 38.4863 27.8336C38.4863 28.2958 38.3134 28.6884 37.9654 29.007C37.6196 29.3267 37.1085 29.4866 36.4354 29.4866C35.7894 29.4866 35.2881 29.3289 34.9325 29.0114C34.579 28.6927 34.4007 28.3089 34.4007 27.8554C34.4007 27.3867 34.5812 26.993 34.939 26.6766C35.2946 26.3612 35.7948 26.2035 36.4354 26.2035ZM38.433 30.9829H34.3876V29.9868H38.433V30.9829ZM45.6245 32.5489H39.2443V21.436C38.4526 21.448 37.537 21.4469 36.4941 21.4338C36.4778 20.6791 36.4919 19.8962 36.4865 19.1436C37.7914 19.2458 38.9735 18.9805 39.8663 18.3487C40.161 18.1388 40.4307 17.5842 40.6863 17.1503L45.6234 17.1307V32.5489H45.6245ZM55.1475 4.1691L56.8592 9.41616L62.3803 9.37158L57.8662 12.6046L59.617 17.7843L55.1127 14.536L50.6758 17.7843L52.4071 12.5427L47.9104 9.37158L53.4859 9.37919L55.1475 4.1691ZM65.4677 57.1845L62.0138 59.6749L63.7331 54.4713L59.2527 51.2611L64.7836 51.2687L66.4866 46.0608L68.1874 51.2698L73.7194 51.2622L69.239 54.4724L70.9572 59.6759L66.4866 56.4516L66.0712 56.7506L65.4677 57.1845ZM11.0755 56.7496L10.6601 56.4505L6.18945 59.6749L7.90765 54.4713L3.42726 51.2611L8.95815 51.2687L10.6579 46.0597L12.3609 51.2676L17.8918 51.26L13.4103 54.4702L15.1296 59.6738L11.6758 57.1835L11.0755 56.7496ZM22.1481 57.6685L20.4647 62.9003L14.9153 62.8666L19.4251 66.0692L17.6775 71.2804L22.1481 68.0267L26.6198 71.2804L24.8722 66.0692L29.382 62.8666L23.8315 62.9003L22.1481 57.6685ZM7.23669 31.344L5.53914 36.5552L0.00280762 36.5432L4.48864 39.7523L2.76499 44.9559L7.2356 41.7272L11.7084 44.9559L9.98582 39.7523L14.4695 36.5432L8.93532 36.5552L7.23669 31.344ZM22.0002 4.1691L20.2885 9.41616L14.7674 9.37158L19.2815 12.6046L17.5307 17.7843L22.035 14.536L26.4719 17.7843L24.7407 12.5427L29.2374 9.37158L23.663 9.37919L22.0002 4.1691ZM38.5777 0.472778L36.8475 5.64481L31.3438 5.67308L35.7807 8.89961L34.106 14.0869L38.5788 10.9093L43.0483 14.0869L41.3747 8.89961L45.8105 5.67308L40.3057 5.64481L38.5777 0.472778ZM54.9985 57.6685L56.6819 62.9003L62.2313 62.8666L57.7216 66.0692L59.4702 71.2804L54.9985 68.0267L50.5268 71.2804L52.2744 66.0692L47.7647 62.8666L53.3162 62.9003L54.9985 57.6685ZM69.91 31.344L71.6075 36.5552L77.1439 36.5432L72.658 39.7523L74.3806 44.9559L69.91 41.7272L65.4383 44.9559L67.1609 39.7523L62.6772 36.5432L68.2103 36.5552L69.91 31.344ZM65.7689 16.3412L64.0387 21.5132L58.5339 21.5415L62.9708 24.768L61.2961 29.9553L65.7689 26.7777L70.2384 29.9553L68.5648 24.768L73.0017 21.5415L67.4969 21.5132L65.7689 16.3412ZM11.3908 16.3423L9.66066 21.5132L4.15587 21.5415L8.59277 24.768L6.91805 29.9553L11.3908 26.7777L15.8604 29.9553L14.1867 24.768L18.6236 21.5415L13.1188 21.5132L11.3908 16.3423ZM46.2563 56.5647C46.2563 55.4739 46.5347 54.7095 47.0893 54.2745C47.644 53.8395 48.49 53.6209 49.6253 53.6209C50.1702 53.6209 50.6204 53.6677 50.9694 53.7644C51.3207 53.859 51.6056 53.9841 51.8264 54.1364C52.0471 54.2886 52.2222 54.4485 52.3495 54.617C52.4778 54.7856 52.58 54.9813 52.6572 55.2064C52.8084 55.636 52.8834 56.0818 52.8834 56.5451C52.8834 57.5869 52.6344 58.3492 52.1363 58.831C51.6393 59.3149 50.7824 59.5552 49.5644 59.5552C48.8826 59.5552 48.3312 59.4791 47.9104 59.3236C47.4895 59.1703 47.1459 58.9441 46.8762 58.6472C46.6815 58.4351 46.5293 58.1459 46.4216 57.7794C46.3118 57.4129 46.2563 57.0073 46.2563 56.5647ZM48.4922 56.5679C48.4922 57.2987 48.5824 57.7968 48.7662 58.0643C48.9478 58.3329 49.2132 58.4667 49.559 58.4667C49.7874 58.4667 49.9853 58.409 50.1538 58.2959C50.3224 58.1828 50.4453 58.0034 50.5236 57.7587C50.603 57.513 50.6432 57.1302 50.6432 56.6104C50.6432 55.8491 50.5529 55.3358 50.3692 55.0738C50.1876 54.8117 49.9135 54.6812 49.5481 54.6812C49.1762 54.6812 48.9065 54.8149 48.7423 55.0814C48.5748 55.35 48.4922 55.8459 48.4922 56.5679ZM38.5777 63.6191L36.8279 68.7651L31.3427 68.8205L35.747 72.0536L34.1049 77.2343L38.5777 74.0893L43.0472 77.2343L41.4051 72.0536L45.8094 68.8205L40.3242 68.7651L38.5777 63.6191Z" fill="url(#paint0_linear_1_98)"/>
<defs>
<linearGradient id="paint0_linear_1_98" x1="25.3732" y1="74.0814" x2="51.3253" y2="2.77849" gradientUnits="userSpaceOnUse">
<stop stop-color="#D6B36A"/>
<stop offset="1" stop-color="#FDF4D0"/>
</linearGradient>
</defs>
</svg>
