<svg width="28" height="28" viewBox="0 0 28 28" fill="none" xmlns="http://www.w3.org/2000/svg">
<path fill-rule="evenodd" clip-rule="evenodd" d="M24.4003 19.1915C23.916 15.9612 21.9169 13.2239 19.146 11.7197L20.8172 8.82494C20.8783 8.71928 20.8421 8.58417 20.7364 8.52316C20.6307 8.46216 20.4956 8.49836 20.4346 8.60402L18.7528 11.5171C17.3888 10.851 15.855 10.4771 14.2335 10.4771C12.6033 10.4771 11.0617 10.8551 9.69231 11.5278L8.00428 8.60402C7.94327 8.49836 7.80816 8.46216 7.7025 8.52316C7.59684 8.58417 7.56064 8.71928 7.62164 8.82494L9.29963 11.7313C6.53978 13.238 4.54973 15.9695 4.06671 19.1915H24.4003ZM9.29532 17.4487C9.93703 17.4487 10.4572 16.9285 10.4572 16.2868C10.4572 15.6451 9.93703 15.1249 9.29532 15.1249C8.65362 15.1249 8.13341 15.6451 8.13341 16.2868C8.13341 16.9285 8.65362 17.4487 9.29532 17.4487ZM18.5907 17.4487C19.2324 17.4487 19.7526 16.9285 19.7526 16.2868C19.7526 15.6451 19.2324 15.1249 18.5907 15.1249C17.949 15.1249 17.4287 15.6451 17.4287 16.2868C17.4287 16.9285 17.949 17.4487 18.5907 17.4487Z" fill="white"/>
<rect x="0.5" y="0.513428" width="26.886" height="26.886" rx="7.5" stroke="white"/>
</svg>
