<svg width="29" height="28" viewBox="0 0 29 28" fill="none" xmlns="http://www.w3.org/2000/svg">
<path d="M20.1911 13.6899C20.1911 11.405 22.2024 10.3298 22.2742 10.2626C21.4841 9.12023 20.1193 8.44823 18.6827 8.44823C17.246 8.31383 15.7376 9.25464 15.0193 9.25464C14.2291 9.25464 13.0798 8.44823 11.7869 8.44823C10.1347 8.44823 8.62627 9.32184 7.83612 10.733C6.11217 13.4883 7.40513 17.5875 9.05726 19.8051C9.8474 20.8803 10.853 22.0899 12.0742 22.0899C13.2953 22.0227 13.7981 21.3507 15.2348 21.3507C16.7432 21.3507 17.1742 22.0899 18.3953 22.0227C19.6883 22.0227 20.5503 20.9475 21.3404 19.8051C22.2742 18.5283 22.7052 17.3187 22.7052 17.2515C22.7052 17.2515 20.1911 16.3779 20.1911 13.6899ZM17.7489 6.96982C18.4672 6.16341 18.8263 5.15541 18.7545 4.0802C17.8207 4.1474 16.5996 4.685 15.8812 5.42421C15.2348 6.09621 14.7319 7.17142 14.8756 8.17943C15.9531 8.31383 17.0306 7.70903 17.7489 6.96982Z" fill="white"/>
<rect x="1.12878" y="0.513428" width="26.886" height="26.886" rx="7.5" stroke="white"/>
</svg>
